<?xml version="1.0" encoding="UTF-8" standalone="no"?>
<svg xmlns="http://www.w3.org/2000/svg" viewBox="0 0 225 315">
    <g
       id="card89">
      <rect
         ry="30"
         rx="30"
         y="0"
         x="0"
         height="315"
         width="225"
         class="background" />
      <path
         d="m 100.68182,127.25935 q 0,9.47193 -5.040108,16.85829 -4.953209,7.38636 -13.469251,11.55749 9.906417,4.25802 15.641711,12.42647 5.822188,8.16845 5.822188,18.50936 0,16.42379 -11.12299,26.15641 -11.036096,9.73262 -29.110962,9.73262 -18.248663,0 -29.284759,-9.73262 -10.949198,-9.81952 -10.949198,-26.15641 0,-10.25402 5.561497,-18.50936 5.648396,-8.25535 15.554813,-12.51337 -8.429144,-4.17112 -13.295454,-11.55749 -4.86631,-7.38636 -4.86631,-16.77139 0,-15.9893 10.25401,-25.37433 10.254011,-9.385026 27.025401,-9.385026 16.684491,0 26.938502,9.385026 10.34091,9.38503 10.34091,25.37433 z m -13.121659,59.00401 q 0,-10.6016 -6.778075,-17.29278 -6.691176,-6.69118 -17.553475,-6.69118 -10.862299,0 -17.466577,6.60428 -6.51738,6.60428 -6.51738,17.37968 0,10.7754 6.343583,16.94519 6.430481,6.16978 17.814171,6.16978 11.296791,0 17.727272,-6.16978 6.430481,-6.25669 6.430481,-16.94519 z M 63.402408,105.70855 q -9.471925,0 -15.381016,5.90909 -5.822193,5.82219 -5.822193,15.90241 0,9.64572 5.735294,15.64171 5.822193,5.90909 15.467915,5.90909 9.645721,0 15.381015,-5.90909 5.822193,-5.99599 5.822193,-15.64171 0,-9.64572 -5.995989,-15.72861 -5.99599,-6.08289 -15.207219,-6.08289 z"
         style="fill:#ffffff"
         class="text" />
      <path
         d="m 185.66845,165.14705 q -5.04011,5.99599 -12.07888,9.64572 -6.95187,3.64974 -15.29412,3.64974 -10.94919,0 -19.11764,-5.3877 -8.08155,-5.3877 -12.51337,-15.12032 -4.43182,-9.81952 -4.43182,-21.6377 0,-12.68717 4.77941,-22.85428 4.86631,-10.16711 13.72995,-15.554815 8.86363,-5.387701 20.68181,-5.387701 18.77006,0 29.54546,14.077536 10.8623,13.99065 10.8623,38.2353 l 0,4.69251 q 0,36.93182 -14.59893,53.9639 -14.59893,16.94519 -44.05749,17.37968 l -3.12834,0 0,-13.55615 3.38904,0 q 19.89973,-0.34759 30.58823,-10.34091 10.6885,-10.08021 11.64439,-31.80481 z m -24.76605,0 q 8.08156,0 14.85963,-4.95321 6.86497,-4.95321 9.99332,-12.25267 l 0,-6.43048 q 0,-15.81551 -6.86498,-25.72193 -6.86497,-9.90641 -17.37968,-9.90641 -10.6016,0 -17.03208,8.16845 -6.43048,8.08155 -6.43048,21.377 0,12.94786 6.16978,21.37701 6.25669,8.34224 16.68449,8.34224 z"
         style="fill:#ffffff"
         class="text" />
    </g>
</svg>
