<svg xmlns:svg="http://www.w3.org/2000/svg" xmlns="http://www.w3.org/2000/svg" width="62" height="88" version="1.1">
<style>
.card {
	fill:#FFF;
}
</style>
<title>Card 2</title>
  <g transform="translate(0,-964.36218)">
    <g transform="matrix(1.5705534,0,0,1.5705534,-6.3098506,-561.54531)" class="card">
      <path d="m19.878906 995.6239-2.929687 0.70313c-0.221357-0.70311-0.351565-1.43228-0.390625-2.1875-0.000003-0.0651-0.0065-0.14972-0.01953-0.25391-0.000002-0.10415-0.000002-0.18227 0-0.23437-0.000002-2.09634 0.677081-3.74998 2.03125-4.96094 1.354161-1.22394 3.040357-1.83591 5.058594-1.83594 4.791652 0.00003 7.187483 2.46096 7.1875 7.38281-0.000017 2.03127-1.035172 4.14715-3.105469 6.34762-0.546888 0.5469-1.510428 1.3998-2.890625 2.5586-1.380217 1.1589-2.408862 2.0704-3.085937 2.7344-0.638028 0.625-1.119798 1.2565-1.445313 1.8945-0.325526 0.625-0.501307 1.1459-0.527343 1.5625l11.425781-0.039 0 3.0273-14.824219 0c-0.000002-0.1953-0.0065-0.4948-0.01953-0.8984-0.01302-0.4167-0.01953-0.7357-0.01953-0.957-0.000003-0.612 0.03906-1.1394 0.117187-1.5821 0.35156-1.9271 1.471351-3.7695 3.359375-5.5273 0.690098-0.638 1.660149-1.4518 2.910156-2.4414 1.249991-1.00262 2.128896-1.75132 2.636719-2.24612 0.729155-0.69009 1.302071-1.43879 1.71875-2.2461 0.429674-0.82029 0.644518-1.53644 0.644531-2.14843-0.000013-1.24999-0.325534-2.29165-0.976562-3.125-0.638033-0.83332-1.621105-1.24998-2.949219-1.25-1.315112 0.00002-2.337247 0.37111-3.066406 1.11328-0.729173 0.7422-1.093756 1.86851-1.09375 3.3789-0.000006 0.35158 0.08463 0.76174 0.253906 1.23047"/>
    </g>
    <g transform="matrix(0.31411068,0,0,0.31411068,-0.13374737,659.38068)" class="card">
      <path d="m19.878906 995.6239-2.929687 0.70313c-0.221357-0.70311-0.351565-1.43228-0.390625-2.1875-0.000003-0.0651-0.0065-0.14972-0.01953-0.25391-0.000002-0.10415-0.000002-0.18227 0-0.23437-0.000002-2.09634 0.677081-3.74998 2.03125-4.96094 1.354161-1.22394 3.040357-1.83591 5.058594-1.83594 4.791652 0.00003 7.187483 2.46096 7.1875 7.38281-0.000017 2.03127-1.035172 4.14715-3.105469 6.34762-0.546888 0.5469-1.510428 1.3998-2.890625 2.5586-1.380217 1.1589-2.408862 2.0704-3.085937 2.7344-0.638028 0.625-1.119798 1.2565-1.445313 1.8945-0.325526 0.625-0.501307 1.1459-0.527343 1.5625l11.425781-0.039 0 3.0273-14.824219 0c-0.000002-0.1953-0.0065-0.4948-0.01953-0.8984-0.01302-0.4167-0.01953-0.7357-0.01953-0.957-0.000003-0.612 0.03906-1.1394 0.117187-1.5821 0.35156-1.9271 1.471351-3.7695 3.359375-5.5273 0.690098-0.638 1.660149-1.4518 2.910156-2.4414 1.249991-1.00262 2.128896-1.75132 2.636719-2.24612 0.729155-0.69009 1.302071-1.43879 1.71875-2.2461 0.429674-0.82029 0.644518-1.53644 0.644531-2.14843-0.000013-1.24999-0.325534-2.29165-0.976562-3.125-0.638033-0.83332-1.621105-1.24998-2.949219-1.25-1.315112 0.00002-2.337247 0.37111-3.066406 1.11328-0.729173 0.7422-1.093756 1.86851-1.09375 3.3789-0.000006 0.35158 0.08463 0.76174 0.253906 1.23047"/>
    </g>
    <g transform="matrix(-0.31411068,0,0,-0.31411068,62.133747,1357.3437)" class="card">
      <path d="m19.878906 995.6239-2.929687 0.70313c-0.221357-0.70311-0.351565-1.43228-0.390625-2.1875-0.000003-0.0651-0.0065-0.14972-0.01953-0.25391-0.000002-0.10415-0.000002-0.18227 0-0.23437-0.000002-2.09634 0.677081-3.74998 2.03125-4.96094 1.354161-1.22394 3.040357-1.83591 5.058594-1.83594 4.791652 0.00003 7.187483 2.46096 7.1875 7.38281-0.000017 2.03127-1.035172 4.14715-3.105469 6.34762-0.546888 0.5469-1.510428 1.3998-2.890625 2.5586-1.380217 1.1589-2.408862 2.0704-3.085937 2.7344-0.638028 0.625-1.119798 1.2565-1.445313 1.8945-0.325526 0.625-0.501307 1.1459-0.527343 1.5625l11.425781-0.039 0 3.0273-14.824219 0c-0.000002-0.1953-0.0065-0.4948-0.01953-0.8984-0.01302-0.4167-0.01953-0.7357-0.01953-0.957-0.000003-0.612 0.03906-1.1394 0.117187-1.5821 0.35156-1.9271 1.471351-3.7695 3.359375-5.5273 0.690098-0.638 1.660149-1.4518 2.910156-2.4414 1.249991-1.00262 2.128896-1.75132 2.636719-2.24612 0.729155-0.69009 1.302071-1.43879 1.71875-2.2461 0.429674-0.82029 0.644518-1.53644 0.644531-2.14843-0.000013-1.24999-0.325534-2.29165-0.976562-3.125-0.638033-0.83332-1.621105-1.24998-2.949219-1.25-1.315112 0.00002-2.337247 0.37111-3.066406 1.11328-0.729173 0.7422-1.093756 1.86851-1.09375 3.3789-0.000006 0.35158 0.08463 0.76174 0.253906 1.23047"/>
    </g>
  </g>
</svg>