<svg xmlns:svg="http://www.w3.org/2000/svg" xmlns="http://www.w3.org/2000/svg" width="62" height="88" version="1.1">
<style>
.card {
	fill:#FFF;
}

</style>
<title>Card 8</title>
  <g transform="translate(0,-964.36218)">
    <g transform="matrix(1.5729647,0,0,1.5729647,-30.655799,958.25144)" class="card">
      <path d="m33.982351 36.779388c-0.000004 1.484382 0.481766 2.649745 1.445313 3.496094 0.963534 0.833337 2.148429 1.250003 3.554687 1.25 1.692697 0.000003 3.020821-0.351559 3.984375-1.054687 0.976548-0.703121 1.464829-1.920567 1.464844-3.652344-0.000015-0.455721-0.05861-0.872387-0.175781-1.25-0.104182-0.377595-0.292984-0.722647-0.566406-1.035156-0.273452-0.325511-0.540379-0.605459-0.800782-0.839844-0.26043-0.234364-0.644544-0.48827-1.152343-0.761719-0.507825-0.286446-0.937512-0.5078-1.289063-0.664062-0.351573-0.169259-0.859385-0.403634-1.523437-0.703125-0.729176 0.325533-1.360686 0.651054-1.894532 0.976562-0.52084 0.312512-1.028652 0.683605-1.523437 1.113281-0.494798 0.416677-0.872401 0.891937-1.132813 1.425782-0.260421 0.520842-0.390629 1.087247-0.390625 1.699218M35.134695 25.08017c-0.000006 0.638039 0.377598 1.28257 1.132813 1.933593 0.768221 0.638038 1.686189 1.087256 2.753906 1.347657 1.119781-0.299463 2.005196-0.748681 2.65625-1.347657 0.651028-0.59894 0.976549-1.276023 0.976562-2.03125-0.000013-0.768209-0.27345-1.41925-0.820312-1.953125-0.546887-0.546853-1.490897-0.82029-2.832031-0.820312-1.184905 0.000022-2.128914 0.253928-2.832032 0.761719-0.69011 0.494812-1.035162 1.197937-1.035156 2.109375m0.273438 4.882812c-0.898443-0.39061-1.679692-1.041651-2.34375-1.953125-0.664066-0.924462-0.996097-1.874982-0.996094-2.851562-0.000003-1.835917 0.624996-3.294249 1.875-4.375 1.249994-1.093726 2.942701-1.6406 5.078125-1.640625 2.22655 0.000025 3.899726 0.566431 5.019531 1.699218 1.132797 1.119815 1.699202 2.513042 1.699219 4.179688-0.000017 1.106789-0.325537 2.089861-0.976563 2.949219-0.651056 0.85939-1.438816 1.536473-2.363281 2.03125 0.429674 0.234389 0.696601 0.384128 0.800781 0.449218 0.104153 0.0521 0.345038 0.188816 0.722657 0.410157 0.39061 0.221367 0.644516 0.384127 0.761718 0.488281 0.117172 0.10418 0.332016 0.27345 0.644532 0.507812 0.312483 0.234388 0.520816 0.43621 0.625 0.605469 0.11717 0.156262 0.286441 0.371105 0.507812 0.644531 0.221337 0.273449 0.371076 0.540376 0.449219 0.800782 0.09113 0.260427 0.195294 0.559905 0.3125 0.898437 0.117169 0.338551 0.195294 0.703134 0.234375 1.09375 0.03904 0.377612 0.05857 0.781258 0.05859 1.210938-0.000019 2.395838-0.761737 4.238284-2.285157 5.527343-1.523452 1.289063-3.496106 1.933594-5.917968 1.933594-2.53907 0-4.583339-0.683593-6.132813-2.050781-1.536461-1.367184-2.304689-3.20312-2.304687-5.507813-0.000002-1.640616 0.429685-3.046864 1.289062-4.21875 0.859371-1.171862 1.940099-2.115871 3.242188-2.832031"/>
    </g>
    <g transform="matrix(0.31459294,0,0,0.31459294,-4.7136481,963.34003)" class="card">
      <path d="m33.982351 36.779388c-0.000004 1.484382 0.481766 2.649745 1.445313 3.496094 0.963534 0.833337 2.148429 1.250003 3.554687 1.25 1.692697 0.000003 3.020821-0.351559 3.984375-1.054687 0.976548-0.703121 1.464829-1.920567 1.464844-3.652344-0.000015-0.455721-0.05861-0.872387-0.175781-1.25-0.104182-0.377595-0.292984-0.722647-0.566406-1.035156-0.273452-0.325511-0.540379-0.605459-0.800782-0.839844-0.26043-0.234364-0.644544-0.48827-1.152343-0.761719-0.507825-0.286446-0.937512-0.5078-1.289063-0.664062-0.351573-0.169259-0.859385-0.403634-1.523437-0.703125-0.729176 0.325533-1.360686 0.651054-1.894532 0.976562-0.52084 0.312512-1.028652 0.683605-1.523437 1.113281-0.494798 0.416677-0.872401 0.891937-1.132813 1.425782-0.260421 0.520842-0.390629 1.087247-0.390625 1.699218M35.134695 25.08017c-0.000006 0.638039 0.377598 1.28257 1.132813 1.933593 0.768221 0.638038 1.686189 1.087256 2.753906 1.347657 1.119781-0.299463 2.005196-0.748681 2.65625-1.347657 0.651028-0.59894 0.976549-1.276023 0.976562-2.03125-0.000013-0.768209-0.27345-1.41925-0.820312-1.953125-0.546887-0.546853-1.490897-0.82029-2.832031-0.820312-1.184905 0.000022-2.128914 0.253928-2.832032 0.761719-0.69011 0.494812-1.035162 1.197937-1.035156 2.109375m0.273438 4.882812c-0.898443-0.39061-1.679692-1.041651-2.34375-1.953125-0.664066-0.924462-0.996097-1.874982-0.996094-2.851562-0.000003-1.835917 0.624996-3.294249 1.875-4.375 1.249994-1.093726 2.942701-1.6406 5.078125-1.640625 2.22655 0.000025 3.899726 0.566431 5.019531 1.699218 1.132797 1.119815 1.699202 2.513042 1.699219 4.179688-0.000017 1.106789-0.325537 2.089861-0.976563 2.949219-0.651056 0.85939-1.438816 1.536473-2.363281 2.03125 0.429674 0.234389 0.696601 0.384128 0.800781 0.449218 0.104153 0.0521 0.345038 0.188816 0.722657 0.410157 0.39061 0.221367 0.644516 0.384127 0.761718 0.488281 0.117172 0.10418 0.332016 0.27345 0.644532 0.507812 0.312483 0.234388 0.520816 0.43621 0.625 0.605469 0.11717 0.156262 0.286441 0.371105 0.507812 0.644531 0.221337 0.273449 0.371076 0.540376 0.449219 0.800782 0.09113 0.260427 0.195294 0.559905 0.3125 0.898437 0.117169 0.338551 0.195294 0.703134 0.234375 1.09375 0.03904 0.377612 0.05857 0.781258 0.05859 1.210938-0.000019 2.395838-0.761737 4.238284-2.285157 5.527343-1.523452 1.289063-3.496106 1.933594-5.917968 1.933594-2.53907 0-4.583339-0.683593-6.132813-2.050781-1.536461-1.367184-2.304689-3.20312-2.304687-5.507813-0.000002-1.640616 0.429685-3.046864 1.289062-4.21875 0.859371-1.171862 1.940099-2.115871 3.242188-2.832031"/>
    </g>
    <g transform="matrix(-0.31459294,0,0,-0.31459294,66.713648,1053.3843)" class="card">
      <path d="m33.982351 36.779388c-0.000004 1.484382 0.481766 2.649745 1.445313 3.496094 0.963534 0.833337 2.148429 1.250003 3.554687 1.25 1.692697 0.000003 3.020821-0.351559 3.984375-1.054687 0.976548-0.703121 1.464829-1.920567 1.464844-3.652344-0.000015-0.455721-0.05861-0.872387-0.175781-1.25-0.104182-0.377595-0.292984-0.722647-0.566406-1.035156-0.273452-0.325511-0.540379-0.605459-0.800782-0.839844-0.26043-0.234364-0.644544-0.48827-1.152343-0.761719-0.507825-0.286446-0.937512-0.5078-1.289063-0.664062-0.351573-0.169259-0.859385-0.403634-1.523437-0.703125-0.729176 0.325533-1.360686 0.651054-1.894532 0.976562-0.52084 0.312512-1.028652 0.683605-1.523437 1.113281-0.494798 0.416677-0.872401 0.891937-1.132813 1.425782-0.260421 0.520842-0.390629 1.087247-0.390625 1.699218M35.134695 25.08017c-0.000006 0.638039 0.377598 1.28257 1.132813 1.933593 0.768221 0.638038 1.686189 1.087256 2.753906 1.347657 1.119781-0.299463 2.005196-0.748681 2.65625-1.347657 0.651028-0.59894 0.976549-1.276023 0.976562-2.03125-0.000013-0.768209-0.27345-1.41925-0.820312-1.953125-0.546887-0.546853-1.490897-0.82029-2.832031-0.820312-1.184905 0.000022-2.128914 0.253928-2.832032 0.761719-0.69011 0.494812-1.035162 1.197937-1.035156 2.109375m0.273438 4.882812c-0.898443-0.39061-1.679692-1.041651-2.34375-1.953125-0.664066-0.924462-0.996097-1.874982-0.996094-2.851562-0.000003-1.835917 0.624996-3.294249 1.875-4.375 1.249994-1.093726 2.942701-1.6406 5.078125-1.640625 2.22655 0.000025 3.899726 0.566431 5.019531 1.699218 1.132797 1.119815 1.699202 2.513042 1.699219 4.179688-0.000017 1.106789-0.325537 2.089861-0.976563 2.949219-0.651056 0.85939-1.438816 1.536473-2.363281 2.03125 0.429674 0.234389 0.696601 0.384128 0.800781 0.449218 0.104153 0.0521 0.345038 0.188816 0.722657 0.410157 0.39061 0.221367 0.644516 0.384127 0.761718 0.488281 0.117172 0.10418 0.332016 0.27345 0.644532 0.507812 0.312483 0.234388 0.520816 0.43621 0.625 0.605469 0.11717 0.156262 0.286441 0.371105 0.507812 0.644531 0.221337 0.273449 0.371076 0.540376 0.449219 0.800782 0.09113 0.260427 0.195294 0.559905 0.3125 0.898437 0.117169 0.338551 0.195294 0.703134 0.234375 1.09375 0.03904 0.377612 0.05857 0.781258 0.05859 1.210938-0.000019 2.395838-0.761737 4.238284-2.285157 5.527343-1.523452 1.289063-3.496106 1.933594-5.917968 1.933594-2.53907 0-4.583339-0.683593-6.132813-2.050781-1.536461-1.367184-2.304689-3.20312-2.304687-5.507813-0.000002-1.640616 0.429685-3.046864 1.289062-4.21875 0.859371-1.171862 1.940099-2.115871 3.242188-2.832031"/>
    </g>
  </g>
</svg>