<?xml version="1.0" encoding="UTF-8" standalone="no"?>
<svg xmlns="http://www.w3.org/2000/svg" viewBox="0 0 225 315">
    <g
       id="card21">
      <rect
         ry="30"
         rx="30"
         y="0"
         x="0"
         height="315"
         width="225"
         class="background"  />
      <path
         d="m 120.25068,222.5 -84.024395,0 0,-11.71409 44.390246,-49.3225 q 9.864499,-11.18563 13.563686,-18.14363 3.787263,-7.04607 3.787263,-14.53252 0,-10.04065 -6.077236,-16.47019 -6.077236,-6.42954 -16.205963,-6.42954 -12.154472,0 -18.936315,6.95799 -6.693767,6.86992 -6.693767,19.20055 l -16.294039,0 q 0,-17.70326 11.361789,-28.62466 11.449865,-10.921414 30.562332,-10.921414 17.879404,0 28.272359,9.424124 10.39295,9.33604 10.39295,24.92547 0,18.93632 -24.132788,45.09485 l -34.349595,37.2561 64.383473,0 0,13.29946 z"
         style="fill:#ffffff"
         class="text" />
      <path
         d="m 191.23984,222.5 -16.38211,0 0,-108.59756 -32.85231,12.06639 0,-14.79675 46.68022,-17.527098 2.5542,0 0,128.855018 z"
         style="fill:#ffffff"
         class="text" />
    </g>
</svg>
