<svg xmlns:svg="http://www.w3.org/2000/svg" xmlns="http://www.w3.org/2000/svg" width="62" height="88" version="1.1">
<style>
.card{
	fill:#FFF;
}
</style>
<title>Card 1</title>
  <g transform="translate(0,-964.36218)">
    <g transform="matrix(2.0600356,0,0,2.0600356,1.594229,-1068.7946)" class="card">
      <path d="m16.083362 998.60256 2.46544 0.65648 0 18.76066-2.392498 0-0.02918-15.522c-0.476561 0.603-1.167078 1.2497-2.071552 1.9402-0.904486 0.6906-1.852731 1.313-2.844738 1.8673l-1.2108371-2.0132c2.7717911-1.3907 4.7995771-3.2872 6.0833621-5.68944"/>
    </g>
    <g transform="matrix(0.41200712,0,0,0.41200712,0.87993008,557.93082)" class="card">
      <path d="m16.083362 998.60256 2.46544 0.65648 0 18.76066-2.392498 0-0.02918-15.522c-0.476561 0.603-1.167078 1.2497-2.071552 1.9402-0.904486 0.6906-1.852731 1.313-2.844738 1.8673l-1.2108371-2.0132c2.7717911-1.3907 4.7995771-3.2872 6.0833621-5.68944"/>
    </g>
    <g transform="matrix(-0.41200712,0,0,-0.41200712,61.12007,1458.7935)" class="card">
      <path d="m16.083362 998.60256 2.46544 0.65648 0 18.76066-2.392498 0-0.02918-15.522c-0.476561 0.603-1.167078 1.2497-2.071552 1.9402-0.904486 0.6906-1.852731 1.313-2.844738 1.8673l-1.2108371-2.0132c2.7717911-1.3907 4.7995771-3.2872 6.0833621-5.68944"/>
    </g>
  </g>
</svg>