<svg xmlns:svg="http://www.w3.org/2000/svg" xmlns="http://www.w3.org/2000/svg" width="62" height="88" version="1.1">
<style>
.card {
	fill:#FFF;
}
</style>
<title>Card 40</title>
  <g transform="translate(0,-964.36218)">
    <g transform="matrix(1.1630071,0,0,1.1630071,-5.452449,976.85422)" class="card">
      <path d="m23.579601 28.576176 0-8.203125c-0.677094 1.197934-1.640635 2.610693-2.890625 4.238281-1.250007 1.614597-2.356777 2.93621-3.320312 3.964844l6.210937 0m-10.292968 0.527343c0.03906-0.05207 0.449216-0.566395 1.230468-1.542968 0.794268-0.97655 1.63411-2.044257 2.519532-3.203125 0.898431-1.171859 1.82942-2.421858 2.792968-3.75 0.976554-1.341126 1.803376-2.591124 2.480469-3.75 0.677072-1.171851 1.054676-2.057267 1.132813-2.65625l3.183593 0 0 14.375 2.5 0 0 3.007812-2.5 0 0 8.164063-3.046875 0 0-8.105469-9.121093 0-1.171875-2.539063M37.93507 30.822269l7.597656-9.726562M37.93507 30.822269l7.597656-9.726562M37.93507 30.822269l7.597656-9.726562M37.93507 30.822269l7.597656-9.726562M37.93507 30.822269l7.597656-9.726562M37.93507 30.822269l7.597656-9.726562c-0.182304-0.61196-0.351575-1.100241-0.507812-1.464844-0.156263-0.377584-0.371106-0.781229-0.644531-1.210937-0.260429-0.429666-0.585949-0.748676-0.976563-0.957032-0.390636-0.20831-0.839854-0.312477-1.347656-0.3125-2.903653 0.000023-4.355474 3.626321-4.355469 10.878907-0.000005 0.92449 0.07812 1.855478 0.234375 2.792968m8.320313-7.089843-7.65625 9.785156c0.299472 1.093755 0.709628 1.953129 1.230468 2.578125 0.520826 0.625003 1.276033 0.937503 2.265625 0.9375 0.559886 0.000003 1.061188-0.123695 1.503907-0.371094 0.442696-0.260413 0.81379-0.579423 1.113281-0.957031 0.299466-0.390621 0.553372-0.891922 0.761719-1.503906 0.20832-0.611973 0.37108-1.204421 0.488281-1.777344 0.117174-0.572909 0.208319-1.243481 0.273437-2.011719 0.06509-0.78124 0.104153-1.451812 0.117188-2.011719 0.01301-0.572904 0.01952-1.223945 0.01953-1.953125-0.000014-1.002589-0.03908-1.907536-0.117187-2.714843m-4.21875-9.570313c1.132801 0.000026 2.141915 0.260442 3.027343 0.78125 0.885403 0.507837 1.595038 1.171899 2.128907 1.992188 0.533838 0.807313 0.970036 1.783875 1.308593 2.929687 0.338526 1.132831 0.5729 2.259132 0.703125 3.378906 0.130192 1.119807 0.195296 2.311213 0.195313 3.574219-0.000017 8.802088-2.434911 13.203125-7.304688 13.203125-1.132821 0-2.141934-0.240885-3.027343-0.722656-0.872402-0.48177-1.582037-1.11328-2.128907-1.894531-0.533858-0.794268-0.976566-1.738278-1.328125-2.832032-0.351565-1.093743-0.598961-2.200513-0.742187-3.320312-0.130211-1.119782-0.195315-2.311187-0.195313-3.574219-0.000002-0.898424 0.03255-1.770819 0.09766-2.617187 0.0651-0.85936 0.175778-1.744776 0.332031-2.65625 0.156247-0.91144 0.35807-1.757794 0.605469-2.539063 0.247392-0.79425 0.559892-1.542947 0.9375-2.246094 0.39062-0.716123 0.833328-1.321591 1.328125-1.816406 0.507806-0.507788 1.106764-0.904923 1.796875-1.191406 0.690096-0.299454 1.445303-0.449193 2.265625-0.449219"/>
    </g>
    <g transform="matrix(0.30936556,0,0,0.30936556,0.88957334,964.98091)" class="card">
      <path d="m23.579601 28.576176 0-8.203125c-0.677094 1.197934-1.640635 2.610693-2.890625 4.238281-1.250007 1.614597-2.356777 2.93621-3.320312 3.964844l6.210937 0m-10.292968 0.527343c0.03906-0.05207 0.449216-0.566395 1.230468-1.542968 0.794268-0.97655 1.63411-2.044257 2.519532-3.203125 0.898431-1.171859 1.82942-2.421858 2.792968-3.75 0.976554-1.341126 1.803376-2.591124 2.480469-3.75 0.677072-1.171851 1.054676-2.057267 1.132813-2.65625l3.183593 0 0 14.375 2.5 0 0 3.007812-2.5 0 0 8.164063-3.046875 0 0-8.105469-9.121093 0-1.171875-2.539063M37.93507 30.822269l7.597656-9.726562M37.93507 30.822269l7.597656-9.726562M37.93507 30.822269l7.597656-9.726562M37.93507 30.822269l7.597656-9.726562M37.93507 30.822269l7.597656-9.726562M37.93507 30.822269l7.597656-9.726562c-0.182304-0.61196-0.351575-1.100241-0.507812-1.464844-0.156263-0.377584-0.371106-0.781229-0.644531-1.210937-0.260429-0.429666-0.585949-0.748676-0.976563-0.957032-0.390636-0.20831-0.839854-0.312477-1.347656-0.3125-2.903653 0.000023-4.355474 3.626321-4.355469 10.878907-0.000005 0.92449 0.07812 1.855478 0.234375 2.792968m8.320313-7.089843-7.65625 9.785156c0.299472 1.093755 0.709628 1.953129 1.230468 2.578125 0.520826 0.625003 1.276033 0.937503 2.265625 0.9375 0.559886 0.000003 1.061188-0.123695 1.503907-0.371094 0.442696-0.260413 0.81379-0.579423 1.113281-0.957031 0.299466-0.390621 0.553372-0.891922 0.761719-1.503906 0.20832-0.611973 0.37108-1.204421 0.488281-1.777344 0.117174-0.572909 0.208319-1.243481 0.273437-2.011719 0.06509-0.78124 0.104153-1.451812 0.117188-2.011719 0.01301-0.572904 0.01952-1.223945 0.01953-1.953125-0.000014-1.002589-0.03908-1.907536-0.117187-2.714843m-4.21875-9.570313c1.132801 0.000026 2.141915 0.260442 3.027343 0.78125 0.885403 0.507837 1.595038 1.171899 2.128907 1.992188 0.533838 0.807313 0.970036 1.783875 1.308593 2.929687 0.338526 1.132831 0.5729 2.259132 0.703125 3.378906 0.130192 1.119807 0.195296 2.311213 0.195313 3.574219-0.000017 8.802088-2.434911 13.203125-7.304688 13.203125-1.132821 0-2.141934-0.240885-3.027343-0.722656-0.872402-0.48177-1.582037-1.11328-2.128907-1.894531-0.533858-0.794268-0.976566-1.738278-1.328125-2.832032-0.351565-1.093743-0.598961-2.200513-0.742187-3.320312-0.130211-1.119782-0.195315-2.311187-0.195313-3.574219-0.000002-0.898424 0.03255-1.770819 0.09766-2.617187 0.0651-0.85936 0.175778-1.744776 0.332031-2.65625 0.156247-0.91144 0.35807-1.757794 0.605469-2.539063 0.247392-0.79425 0.559892-1.542947 0.9375-2.246094 0.39062-0.716123 0.833328-1.321591 1.328125-1.816406 0.507806-0.507788 1.106764-0.904923 1.796875-1.191406 0.690096-0.299454 1.445303-0.449193 2.265625-0.449219"/>
    </g>
    <g transform="matrix(-0.30936556,0,0,-0.30936556,61.110427,1051.7435)" class="card">
      <path d="m23.579601 28.576176 0-8.203125c-0.677094 1.197934-1.640635 2.610693-2.890625 4.238281-1.250007 1.614597-2.356777 2.93621-3.320312 3.964844l6.210937 0m-10.292968 0.527343c0.03906-0.05207 0.449216-0.566395 1.230468-1.542968 0.794268-0.97655 1.63411-2.044257 2.519532-3.203125 0.898431-1.171859 1.82942-2.421858 2.792968-3.75 0.976554-1.341126 1.803376-2.591124 2.480469-3.75 0.677072-1.171851 1.054676-2.057267 1.132813-2.65625l3.183593 0 0 14.375 2.5 0 0 3.007812-2.5 0 0 8.164063-3.046875 0 0-8.105469-9.121093 0-1.171875-2.539063M37.93507 30.822269l7.597656-9.726562M37.93507 30.822269l7.597656-9.726562M37.93507 30.822269l7.597656-9.726562M37.93507 30.822269l7.597656-9.726562M37.93507 30.822269l7.597656-9.726562M37.93507 30.822269l7.597656-9.726562c-0.182304-0.61196-0.351575-1.100241-0.507812-1.464844-0.156263-0.377584-0.371106-0.781229-0.644531-1.210937-0.260429-0.429666-0.585949-0.748676-0.976563-0.957032-0.390636-0.20831-0.839854-0.312477-1.347656-0.3125-2.903653 0.000023-4.355474 3.626321-4.355469 10.878907-0.000005 0.92449 0.07812 1.855478 0.234375 2.792968m8.320313-7.089843-7.65625 9.785156c0.299472 1.093755 0.709628 1.953129 1.230468 2.578125 0.520826 0.625003 1.276033 0.937503 2.265625 0.9375 0.559886 0.000003 1.061188-0.123695 1.503907-0.371094 0.442696-0.260413 0.81379-0.579423 1.113281-0.957031 0.299466-0.390621 0.553372-0.891922 0.761719-1.503906 0.20832-0.611973 0.37108-1.204421 0.488281-1.777344 0.117174-0.572909 0.208319-1.243481 0.273437-2.011719 0.06509-0.78124 0.104153-1.451812 0.117188-2.011719 0.01301-0.572904 0.01952-1.223945 0.01953-1.953125-0.000014-1.002589-0.03908-1.907536-0.117187-2.714843m-4.21875-9.570313c1.132801 0.000026 2.141915 0.260442 3.027343 0.78125 0.885403 0.507837 1.595038 1.171899 2.128907 1.992188 0.533838 0.807313 0.970036 1.783875 1.308593 2.929687 0.338526 1.132831 0.5729 2.259132 0.703125 3.378906 0.130192 1.119807 0.195296 2.311213 0.195313 3.574219-0.000017 8.802088-2.434911 13.203125-7.304688 13.203125-1.132821 0-2.141934-0.240885-3.027343-0.722656-0.872402-0.48177-1.582037-1.11328-2.128907-1.894531-0.533858-0.794268-0.976566-1.738278-1.328125-2.832032-0.351565-1.093743-0.598961-2.200513-0.742187-3.320312-0.130211-1.119782-0.195315-2.311187-0.195313-3.574219-0.000002-0.898424 0.03255-1.770819 0.09766-2.617187 0.0651-0.85936 0.175778-1.744776 0.332031-2.65625 0.156247-0.91144 0.35807-1.757794 0.605469-2.539063 0.247392-0.79425 0.559892-1.542947 0.9375-2.246094 0.39062-0.716123 0.833328-1.321591 1.328125-1.816406 0.507806-0.507788 1.106764-0.904923 1.796875-1.191406 0.690096-0.299454 1.445303-0.449193 2.265625-0.449219"/>
    </g>
  </g>
</svg>