<svg xmlns:svg="http://www.w3.org/2000/svg" xmlns="http://www.w3.org/2000/svg" width="62" height="88" version="1.1">
<style>
.card {
	fill:#FFF;
}
</style>
<title>Card 20</title>
  <g transform="translate(0,-964.36218)">
    <g transform="matrix(1.1893807,0,0,1.1893807,-9.7007604,971.82673)" class="card">
      <path d="m20.118565 26.596954-2.929688 0.703125c-0.221357-0.703108-0.351565-1.432274-0.390625-2.1875-0.000002-0.06509-0.0065-0.149721-0.01953-0.253906-0.000003-0.104148-0.000003-0.182273 0-0.234375-0.000003-2.096333 0.67708-3.749977 2.03125-4.960937 1.354161-1.223934 3.040357-1.835912 5.058594-1.835938 4.791652 0.000026 7.187483 2.460961 7.1875 7.382813-0.000017 2.031266-1.035172 4.147149-3.105469 6.347656-0.546888 0.546886-1.510429 1.39975-2.890625 2.558594-1.380218 1.158862-2.408863 2.070319-3.085938 2.734375-0.638028 0.625005-1.119798 1.256515-1.445312 1.894531-0.325527 0.625004-0.501308 1.145837-0.527344 1.5625l11.425781-0.03906 0 3.027344-14.824218 0c-0.000003-0.195312-0.0065-0.494791-0.01953-0.898437-0.01302-0.416666-0.01953-0.735676-0.01953-0.957032-0.000002-0.611976 0.03906-1.13932 0.117188-1.582031 0.351559-1.927078 1.47135-3.769524 3.359375-5.527344 0.690097-0.638011 1.660148-1.451812 2.910156-2.441406 1.24999-1.002592 2.128895-1.751289 2.636719-2.246094 0.729154-0.690089 1.30207-1.438787 1.71875-2.246093 0.429674-0.820296 0.644517-1.536441 0.644531-2.148438-0.000014-1.249981-0.325534-2.291646-0.976563-3.125-0.638033-0.833311-1.621105-1.249977-2.949218-1.25-1.315113 0.000023-2.337247 0.371116-3.066407 1.113281-0.729172 0.742208-1.093755 1.868509-1.09375 3.378907-0.000005 0.35158 0.08463 0.761736 0.253907 1.230468"/>
      <path d="m40.411533 34.448517 7.597657-9.726563c-0.182305-0.61196-0.351576-1.10024-0.507813-1.464843-0.156262-0.377584-0.371106-0.78123-0.644531-1.210938-0.260428-0.429666-0.585949-0.748676-0.976563-0.957031-0.390635-0.208311-0.839853-0.312478-1.347656-0.3125-2.903652 0.000022-4.355474 3.626321-4.355469 10.878906-0.000005 0.92449 0.07812 1.855479 0.234375 2.792969m8.320313-7.089844-7.65625 9.785156c0.299473 1.093755 0.709628 1.95313 1.230469 2.578125 0.520825 0.625003 1.276033 0.937503 2.265625 0.9375 0.559885 0.000003 1.061187-0.123695 1.503906-0.371093 0.442697-0.260414 0.81379-0.579424 1.113281-0.957032 0.299467-0.39062 0.553373-0.891922 0.761719-1.503906 0.20832-0.611973 0.37108-1.20442 0.488281-1.777344 0.117174-0.572908 0.20832-1.243481 0.273438-2.011718 0.06509-0.78124 0.104152-1.451813 0.117187-2.011719 0.01301-0.572905 0.01952-1.223946 0.01953-1.953125-0.000014-1.00259-0.03908-1.907537-0.117187-2.714844m-4.21875-9.570312c1.132802 0.000025 2.141915 0.260442 3.027344 0.78125 0.885403 0.507836 1.595037 1.171898 2.128906 1.992187 0.533839 0.807314 0.970036 1.783875 1.308594 2.929688 0.338525 1.132831 0.5729 2.259132 0.703125 3.378906 0.130191 1.119807 0.195295 2.311212 0.195312 3.574219-0.000017 8.802087-2.43491 13.203124-7.304687 13.203125-1.132821-0.000001-2.141935-0.240886-3.027344-0.722657-0.872402-0.48177-1.582036-1.113279-2.128906-1.894531-0.533858-0.794268-0.976566-1.738277-1.328125-2.832031-0.351566-1.093744-0.598961-2.200514-0.742188-3.320313-0.13021-1.119782-0.195315-2.311187-0.195312-3.574218-0.000003-0.898425 0.03255-1.77082 0.09766-2.617188 0.0651-0.859359 0.175779-1.744775 0.332031-2.65625 0.156247-0.91144 0.35807-1.757793 0.605469-2.539062 0.247392-0.794251 0.559892-1.542948 0.9375-2.246094 0.39062-0.716123 0.833328-1.321591 1.328125-1.816406 0.507806-0.507788 1.106764-0.904924 1.796875-1.191407 0.690096-0.299453 1.445304-0.449193 2.265625-0.449218"/>
    </g>
    <g transform="matrix(0.30936556,0,0,0.30936556,-0.12429432,963.85907)" class="card">
      <path d="m20.118565 26.596954-2.929688 0.703125c-0.221357-0.703108-0.351565-1.432274-0.390625-2.1875-0.000002-0.06509-0.0065-0.149721-0.01953-0.253906-0.000003-0.104148-0.000003-0.182273 0-0.234375-0.000003-2.096333 0.67708-3.749977 2.03125-4.960937 1.354161-1.223934 3.040357-1.835912 5.058594-1.835938 4.791652 0.000026 7.187483 2.460961 7.1875 7.382813-0.000017 2.031266-1.035172 4.147149-3.105469 6.347656-0.546888 0.546886-1.510429 1.39975-2.890625 2.558594-1.380218 1.158862-2.408863 2.070319-3.085938 2.734375-0.638028 0.625005-1.119798 1.256515-1.445312 1.894531-0.325527 0.625004-0.501308 1.145837-0.527344 1.5625l11.425781-0.03906 0 3.027344-14.824218 0c-0.000003-0.195312-0.0065-0.494791-0.01953-0.898437-0.01302-0.416666-0.01953-0.735676-0.01953-0.957032-0.000002-0.611976 0.03906-1.13932 0.117188-1.582031 0.351559-1.927078 1.47135-3.769524 3.359375-5.527344 0.690097-0.638011 1.660148-1.451812 2.910156-2.441406 1.24999-1.002592 2.128895-1.751289 2.636719-2.246094 0.729154-0.690089 1.30207-1.438787 1.71875-2.246093 0.429674-0.820296 0.644517-1.536441 0.644531-2.148438-0.000014-1.249981-0.325534-2.291646-0.976563-3.125-0.638033-0.833311-1.621105-1.249977-2.949218-1.25-1.315113 0.000023-2.337247 0.371116-3.066407 1.113281-0.729172 0.742208-1.093755 1.868509-1.09375 3.378907-0.000005 0.35158 0.08463 0.761736 0.253907 1.230468"/>
      <path d="m40.411533 34.448517 7.597657-9.726563c-0.182305-0.61196-0.351576-1.10024-0.507813-1.464843-0.156262-0.377584-0.371106-0.78123-0.644531-1.210938-0.260428-0.429666-0.585949-0.748676-0.976563-0.957031-0.390635-0.208311-0.839853-0.312478-1.347656-0.3125-2.903652 0.000022-4.355474 3.626321-4.355469 10.878906-0.000005 0.92449 0.07812 1.855479 0.234375 2.792969m8.320313-7.089844-7.65625 9.785156c0.299473 1.093755 0.709628 1.95313 1.230469 2.578125 0.520825 0.625003 1.276033 0.937503 2.265625 0.9375 0.559885 0.000003 1.061187-0.123695 1.503906-0.371093 0.442697-0.260414 0.81379-0.579424 1.113281-0.957032 0.299467-0.39062 0.553373-0.891922 0.761719-1.503906 0.20832-0.611973 0.37108-1.20442 0.488281-1.777344 0.117174-0.572908 0.20832-1.243481 0.273438-2.011718 0.06509-0.78124 0.104152-1.451813 0.117187-2.011719 0.01301-0.572905 0.01952-1.223946 0.01953-1.953125-0.000014-1.00259-0.03908-1.907537-0.117187-2.714844m-4.21875-9.570312c1.132802 0.000025 2.141915 0.260442 3.027344 0.78125 0.885403 0.507836 1.595037 1.171898 2.128906 1.992187 0.533839 0.807314 0.970036 1.783875 1.308594 2.929688 0.338525 1.132831 0.5729 2.259132 0.703125 3.378906 0.130191 1.119807 0.195295 2.311212 0.195312 3.574219-0.000017 8.802087-2.43491 13.203124-7.304687 13.203125-1.132821-0.000001-2.141935-0.240886-3.027344-0.722657-0.872402-0.48177-1.582036-1.113279-2.128906-1.894531-0.533858-0.794268-0.976566-1.738277-1.328125-2.832031-0.351566-1.093744-0.598961-2.200514-0.742188-3.320313-0.13021-1.119782-0.195315-2.311187-0.195312-3.574218-0.000003-0.898425 0.03255-1.77082 0.09766-2.617188 0.0651-0.859359 0.175779-1.744775 0.332031-2.65625 0.156247-0.91144 0.35807-1.757793 0.605469-2.539062 0.247392-0.794251 0.559892-1.542948 0.9375-2.246094 0.39062-0.716123 0.833328-1.321591 1.328125-1.816406 0.507806-0.507788 1.106764-0.904924 1.796875-1.191407 0.690096-0.299453 1.445304-0.449193 2.265625-0.449218"/>
    </g>
    <g transform="matrix(-0.30936556,0,0,-0.30936556,62.130336,1052.8653)" class="card">
      <path d="m20.118565 26.596954-2.929688 0.703125c-0.221357-0.703108-0.351565-1.432274-0.390625-2.1875-0.000002-0.06509-0.0065-0.149721-0.01953-0.253906-0.000003-0.104148-0.000003-0.182273 0-0.234375-0.000003-2.096333 0.67708-3.749977 2.03125-4.960937 1.354161-1.223934 3.040357-1.835912 5.058594-1.835938 4.791652 0.000026 7.187483 2.460961 7.1875 7.382813-0.000017 2.031266-1.035172 4.147149-3.105469 6.347656-0.546888 0.546886-1.510429 1.39975-2.890625 2.558594-1.380218 1.158862-2.408863 2.070319-3.085938 2.734375-0.638028 0.625005-1.119798 1.256515-1.445312 1.894531-0.325527 0.625004-0.501308 1.145837-0.527344 1.5625l11.425781-0.03906 0 3.027344-14.824218 0c-0.000003-0.195312-0.0065-0.494791-0.01953-0.898437-0.01302-0.416666-0.01953-0.735676-0.01953-0.957032-0.000002-0.611976 0.03906-1.13932 0.117188-1.582031 0.351559-1.927078 1.47135-3.769524 3.359375-5.527344 0.690097-0.638011 1.660148-1.451812 2.910156-2.441406 1.24999-1.002592 2.128895-1.751289 2.636719-2.246094 0.729154-0.690089 1.30207-1.438787 1.71875-2.246093 0.429674-0.820296 0.644517-1.536441 0.644531-2.148438-0.000014-1.249981-0.325534-2.291646-0.976563-3.125-0.638033-0.833311-1.621105-1.249977-2.949218-1.25-1.315113 0.000023-2.337247 0.371116-3.066407 1.113281-0.729172 0.742208-1.093755 1.868509-1.09375 3.378907-0.000005 0.35158 0.08463 0.761736 0.253907 1.230468"/>
      <path d="m40.411533 34.448517 7.597657-9.726563c-0.182305-0.61196-0.351576-1.10024-0.507813-1.464843-0.156262-0.377584-0.371106-0.78123-0.644531-1.210938-0.260428-0.429666-0.585949-0.748676-0.976563-0.957031-0.390635-0.208311-0.839853-0.312478-1.347656-0.3125-2.903652 0.000022-4.355474 3.626321-4.355469 10.878906-0.000005 0.92449 0.07812 1.855479 0.234375 2.792969m8.320313-7.089844-7.65625 9.785156c0.299473 1.093755 0.709628 1.95313 1.230469 2.578125 0.520825 0.625003 1.276033 0.937503 2.265625 0.9375 0.559885 0.000003 1.061187-0.123695 1.503906-0.371093 0.442697-0.260414 0.81379-0.579424 1.113281-0.957032 0.299467-0.39062 0.553373-0.891922 0.761719-1.503906 0.20832-0.611973 0.37108-1.20442 0.488281-1.777344 0.117174-0.572908 0.20832-1.243481 0.273438-2.011718 0.06509-0.78124 0.104152-1.451813 0.117187-2.011719 0.01301-0.572905 0.01952-1.223946 0.01953-1.953125-0.000014-1.00259-0.03908-1.907537-0.117187-2.714844m-4.21875-9.570312c1.132802 0.000025 2.141915 0.260442 3.027344 0.78125 0.885403 0.507836 1.595037 1.171898 2.128906 1.992187 0.533839 0.807314 0.970036 1.783875 1.308594 2.929688 0.338525 1.132831 0.5729 2.259132 0.703125 3.378906 0.130191 1.119807 0.195295 2.311212 0.195312 3.574219-0.000017 8.802087-2.43491 13.203124-7.304687 13.203125-1.132821-0.000001-2.141935-0.240886-3.027344-0.722657-0.872402-0.48177-1.582036-1.113279-2.128906-1.894531-0.533858-0.794268-0.976566-1.738277-1.328125-2.832031-0.351566-1.093744-0.598961-2.200514-0.742188-3.320313-0.13021-1.119782-0.195315-2.311187-0.195312-3.574218-0.000003-0.898425 0.03255-1.77082 0.09766-2.617188 0.0651-0.859359 0.175779-1.744775 0.332031-2.65625 0.156247-0.91144 0.35807-1.757793 0.605469-2.539062 0.247392-0.794251 0.559892-1.542948 0.9375-2.246094 0.39062-0.716123 0.833328-1.321591 1.328125-1.816406 0.507806-0.507788 1.106764-0.904924 1.796875-1.191407 0.690096-0.299453 1.445304-0.449193 2.265625-0.449218"/>
    </g>
  </g>
</svg>