<?xml version="1.0" encoding="UTF-8" standalone="no"?>
<svg xmlns="http://www.w3.org/2000/svg" viewBox="0 0 225 315">
    <g
       id="card55">
      <rect
         ry="30"
         rx="30"
         y="0"
         x="0"
         height="315"
         width="225"
         class="background" />
      <path
         d="m 26.053521,156.44308 6.517615,-63.943087 65.704609,0 0,15.060977 -51.876695,0 -3.875339,34.96612 q 9.42412,-5.54878 21.40244,-5.54878 17.527101,0 27.831979,11.62602 10.30488,11.53794 10.30488,31.26694 0,19.81707 -10.745259,31.26694 Q 80.660569,222.5 61.460026,222.5 44.46138,222.5 33.716123,213.07588 22.970865,203.65176 21.473575,187.00542 l 15.413279,0 q 1.49729,11.00948 7.838754,16.64634 6.341464,5.54878 16.734418,5.54878 11.361789,0 17.791329,-7.75068 6.517615,-7.75068 6.517615,-21.40244 0,-12.85908 -7.046071,-20.60976 -6.957995,-7.83875 -18.584011,-7.83875 -10.657182,0 -16.734418,4.66802 l -4.315718,3.52304 -13.035231,-3.34689 z"
         style="fill:#ffffff"
         class="text" />
      <path
         d="m 127.51694,156.44308 6.51761,-63.943087 65.70461,0 0,15.060977 -51.87669,0 -3.87534,34.96612 q 9.42412,-5.54878 21.40244,-5.54878 17.5271,0 27.83198,11.62602 10.30488,11.53794 10.30488,31.26694 0,19.81707 -10.74526,31.26694 Q 182.12399,222.5 162.92344,222.5 q -16.99864,0 -27.7439,-9.42412 -10.74526,-9.42412 -12.24255,-26.07046 l 15.41328,0 q 1.49729,11.00948 7.83876,16.64634 6.34146,5.54878 16.73441,5.54878 11.36179,0 17.79133,-7.75068 6.51762,-7.75068 6.51762,-21.40244 0,-12.85908 -7.04607,-20.60976 -6.958,-7.83875 -18.58402,-7.83875 -10.65718,0 -16.73441,4.66802 l -4.31572,3.52304 -13.03523,-3.34689 z"
         style="fill:#ffffff"
         class="text" />
    </g>
</svg>
