<?xml version="1.0" encoding="UTF-8" standalone="no"?>
<svg xmlns="http://www.w3.org/2000/svg" viewBox="0 0 225 315">
    <g
       id="cardunknown">
      <rect
         ry="30"
         rx="30"
         y="0"
         x="0"
         height="315"
         width="225"
         class="background" />
      <path
         d="m 101.70309,185.69435 q 0.17485,-10.4035 2.36046,-16.43578 2.18561,-6.03228 8.91728,-13.37592 l 11.45259,-11.80229 q 7.34365,-8.30531 7.34365,-17.83457 0,-9.17955 -4.80834,-14.33759 -4.80834,-5.24546 -13.9879,-5.24546 -8.91728,0 -14.337591,4.72091 -5.42031,4.72092 -5.42031,12.67654 l -16.173504,0 q 0.174849,-14.16275 10.0538,-22.81776 9.966375,-8.742434 25.877605,-8.742434 16.5232,0 25.70276,8.917284 9.26698,8.82986 9.26698,24.30397 0,15.29926 -14.16274,30.1614 l -9.52926,9.44183 q -6.38198,7.08137 -6.38198,20.36987 l -16.1735,0 z m -0.69939,27.71352 q 0,-3.9341 2.36045,-6.55683 2.44788,-2.71015 7.1688,-2.71015 4.72091,0 7.1688,2.71015 2.44788,2.62273 2.44788,6.55683 0,3.93409 -2.44788,6.55682 -2.44789,2.53531 -7.1688,2.53531 -4.72092,0 -7.1688,-2.53531 -2.36045,-2.62273 -2.36045,-6.55682 z"
         style="fill:#ffffff"
         class="text" />
    </g>
</svg>
