<?xml version="1.0" encoding="UTF-8" standalone="no"?>
<svg xmlns="http://www.w3.org/2000/svg" viewBox="0 0 225 315">
    <g
       id="card3">
      <rect
         ry="30"
         rx="30"
         y="0"
         x="0"
         height="315"
         width="225"
         class="background" />
      <path
         d="m 98.118317,149.67914 12.078873,0 q 11.38369,-0.1738 17.90107,-5.99599 6.51738,-5.82219 6.51738,-15.72861 0,-22.24599 -22.15909,-22.24599 -10.42781,0 -16.68449,5.99599 -6.169786,5.90909 -6.169786,15.72861 l -16.076202,0 q 0,-15.03342 10.949197,-24.93984 11.036096,-9.993316 27.981281,-9.993316 17.90107,0 28.06818,9.471926 10.16712,9.47192 10.16712,26.33021 0,8.25535 -5.38771,15.98931 -5.3008,7.73395 -14.51203,11.55748 10.42781,3.30214 16.07621,10.9492 5.73529,7.64706 5.73529,18.68316 0,17.03208 -11.12299,27.0254 -11.123,9.99331 -28.93717,9.99331 -17.81417,0 -29.024063,-9.64572 -11.122995,-9.64572 -11.122995,-25.46123 l 16.163102,0 q 0,9.99332 6.517379,15.98931 6.517377,5.99598 17.466577,5.99598 11.64439,0 17.81417,-6.08288 6.16979,-6.08289 6.16979,-17.46658 0,-11.0361 -6.77808,-16.94519 -6.77807,-5.90909 -19.55214,-6.08288 l -12.078873,0 0,-13.12166 z"
         class="text"
         style="fill:#ffffff" />
    </g>
</svg>
