<?xml version="1.0" encoding="UTF-8" standalone="no"?>
<!-- Created with Inkscape (http://www.inkscape.org/) -->

<svg
   xmlns:dc="http://purl.org/dc/elements/1.1/"
   xmlns:cc="http://creativecommons.org/ns#"
   xmlns:rdf="http://www.w3.org/1999/02/22-rdf-syntax-ns#"
   xmlns:svg="http://www.w3.org/2000/svg"
   xmlns="http://www.w3.org/2000/svg"
   xmlns:sodipodi="http://sodipodi.sourceforge.net/DTD/sodipodi-0.dtd"
   xmlns:inkscape="http://www.inkscape.org/namespaces/inkscape"
   width="62"
   height="88"
   id="svg3007"
   version="1.1"
   inkscape:version="0.48.2 r9819"
   sodipodi:docname="New document 2">
  <title
     id="title3048">Card Template</title>
  <defs
     id="defs3009" />
  <sodipodi:namedview
     id="base"
     pagecolor="#ffffff"
     bordercolor="#666666"
     borderopacity="1.0"
     inkscape:pageopacity="0.0"
     inkscape:pageshadow="2"
     inkscape:zoom="12.375"
     inkscape:cx="31"
     inkscape:cy="44"
     inkscape:document-units="px"
     inkscape:current-layer="layer1"
     showgrid="true"
     showguides="true"
     inkscape:guide-bbox="true"
     inkscape:window-width="1905"
     inkscape:window-height="1277"
     inkscape:window-x="20"
     inkscape:window-y="20"
     inkscape:window-maximized="0">
    <inkscape:grid
       type="xygrid"
       id="grid3015"
       empspacing="5"
       visible="true"
       enabled="true"
       snapvisiblegridlinesonly="true"
       originy="-87px" />
    <sodipodi:guide
       orientation="1,0"
       position="5,83"
       id="guide3017" />
    <sodipodi:guide
       orientation="0,1"
       position="5,83"
       id="guide3019" />
    <sodipodi:guide
       orientation="1,0"
       position="57,5"
       id="guide3021" />
    <sodipodi:guide
       orientation="0,1"
       position="57,5"
       id="guide3023" />
  </sodipodi:namedview>
  <metadata
     id="metadata3012">
    <rdf:RDF>
      <cc:Work
         rdf:about="">
        <dc:format>image/svg+xml</dc:format>
        <dc:type
           rdf:resource="http://purl.org/dc/dcmitype/StillImage" />
        <dc:title>Card Template</dc:title>
        <cc:license
           rdf:resource="http://creativecommons.org/licenses/by-sa/3.0/" />
        <dc:creator>
          <cc:Agent>
            <dc:title>Frank Bille &lt;github@frankbille.dk&gt;</dc:title>
          </cc:Agent>
        </dc:creator>
        <dc:description></dc:description>
        <dc:subject>
          <rdf:Bag>
            <rdf:li>playingcard planning poker</rdf:li>
          </rdf:Bag>
        </dc:subject>
      </cc:Work>
      <cc:License
         rdf:about="http://creativecommons.org/licenses/by-sa/3.0/">
        <cc:permits
           rdf:resource="http://creativecommons.org/ns#Reproduction" />
        <cc:permits
           rdf:resource="http://creativecommons.org/ns#Distribution" />
        <cc:requires
           rdf:resource="http://creativecommons.org/ns#Notice" />
        <cc:requires
           rdf:resource="http://creativecommons.org/ns#Attribution" />
        <cc:permits
           rdf:resource="http://creativecommons.org/ns#DerivativeWorks" />
        <cc:requires
           rdf:resource="http://creativecommons.org/ns#ShareAlike" />
      </cc:License>
    </rdf:RDF>
  </metadata>
  <g
     inkscape:label="Layer 1"
     inkscape:groupmode="layer"
     id="layer1"
     transform="translate(0,-964.36218)">
    <text
       xml:space="preserve"
       style="font-size:29.87704086px;font-style:normal;font-variant:normal;font-weight:normal;font-stretch:normal;line-height:125%;letter-spacing:0px;word-spacing:0px;fill:#000000;fill-opacity:1;stroke:none;font-family:CosmicSansNeueMono;-inkscape-font-specification:CosmicSansNeueMono"
       x="8.4244528"
       y="1017.8884"
       id="text3025"
       sodipodi:linespacing="125%"><tspan
         sodipodi:role="line"
         id="tspan3027"
         x="8.4244528"
         y="1017.8884">100</tspan></text>
    <g
       style="font-size:12.24514198px;font-style:normal;font-variant:normal;font-weight:normal;font-stretch:normal;line-height:125%;letter-spacing:0px;word-spacing:0px;fill:#000000;fill-opacity:1;stroke:none;font-family:CosmicSansNeueMono;-inkscape-font-specification:CosmicSansNeueMono"
       id="text3029"
       transform="translate(-2.6457379,-0.09567)">
      <path
         d="m 10.139013,969.45785 1.010464,0.26906 0,7.68908 -0.980568,0 -0.01196,-6.36173 c -0.1953197,0.24714 -0.4783289,0.51221 -0.8490287,0.79522 -0.3707045,0.28301 -0.7593439,0.53812 -1.1659193,0.76532 l -0.4962631,-0.82511 c 1.1360221,-0.57 1.9671125,-1.34728 2.4932731,-2.33184"
         id="path3034"
         inkscape:connector-curvature="0" />
      <path
         d="m 15.011958,974.6417 2.32586,-2.97757 c -0.05581,-0.18734 -0.107628,-0.33682 -0.155456,-0.44843 -0.04784,-0.11559 -0.113606,-0.23916 -0.19731,-0.37071 -0.07972,-0.13153 -0.179375,-0.22919 -0.298953,-0.29297 -0.119585,-0.0638 -0.257104,-0.0957 -0.412556,-0.0957 -0.888891,10e-6 -1.333335,1.11012 -1.333334,3.33035 -10e-7,0.28301 0.02392,0.56801 0.07175,0.855 m 2.547085,-2.1704 -2.343796,2.99552 c 0.09168,0.33483 0.217237,0.59791 0.376681,0.78923 0.15944,0.19134 0.39063,0.287 0.693573,0.287 0.171397,0 0.324859,-0.0379 0.460388,-0.1136 0.135523,-0.0797 0.249125,-0.17738 0.340808,-0.29298 0.09167,-0.11958 0.169403,-0.27304 0.233183,-0.46039 0.06377,-0.18734 0.113599,-0.3687 0.149477,-0.54409 0.03587,-0.17539 0.06377,-0.38067 0.08371,-0.61585 0.01993,-0.23916 0.03188,-0.44444 0.03588,-0.61584 0.004,-0.17538 0.006,-0.37469 0.006,-0.59791 -4e-6,-0.30692 -0.01196,-0.58395 -0.03588,-0.83109 m -1.291479,-2.92975 c 0.346783,10e-6 0.655701,0.0797 0.926756,0.23917 0.271047,0.15546 0.488287,0.35875 0.651719,0.60986 0.163423,0.24714 0.296956,0.5461 0.400598,0.89686 0.103632,0.3468 0.175381,0.69159 0.215246,1.03438 0.03986,0.34281 0.05979,0.70753 0.05979,1.09417 -5e-6,2.69457 -0.745395,4.04186 -2.236173,4.04186 -0.346789,0 -0.655708,-0.0737 -0.926757,-0.22123 -0.267067,-0.14748 -0.484306,-0.3408 -0.651719,-0.57997 -0.163429,-0.24315 -0.298954,-0.53213 -0.406577,-0.86696 -0.107624,-0.33483 -0.183359,-0.67364 -0.227204,-1.01645 -0.03986,-0.34279 -0.05979,-0.70752 -0.05979,-1.09417 -10e-7,-0.27503 0.01,-0.54209 0.02989,-0.80119 0.01993,-0.26308 0.05381,-0.53413 0.101645,-0.81316 0.04783,-0.27901 0.109615,-0.53811 0.185351,-0.77728 0.07573,-0.24314 0.171399,-0.47234 0.286995,-0.68759 0.11958,-0.21922 0.255106,-0.40458 0.406577,-0.55605 0.155454,-0.15545 0.338812,-0.27703 0.550075,-0.36473 0.211258,-0.0917 0.442449,-0.13751 0.693573,-0.13752"
         id="path3036"
         inkscape:connector-curvature="0" />
      <path
         d="m 21.349776,974.6417 2.325859,-2.97757 c -0.05581,-0.18734 -0.107627,-0.33682 -0.155456,-0.44843 -0.04784,-0.11559 -0.113606,-0.23916 -0.197309,-0.37071 -0.07973,-0.13153 -0.179376,-0.22919 -0.298954,-0.29297 -0.119584,-0.0638 -0.257103,-0.0957 -0.412556,-0.0957 -0.888891,10e-6 -1.333335,1.11012 -1.333333,3.33035 -2e-6,0.28301 0.02391,0.56801 0.07175,0.855 m 2.547085,-2.1704 -2.343797,2.99552 c 0.09168,0.33483 0.217238,0.59791 0.376682,0.78923 0.159439,0.19134 0.39063,0.287 0.693572,0.287 0.171397,0 0.32486,-0.0379 0.460389,-0.1136 0.135522,-0.0797 0.249124,-0.17738 0.340807,-0.29298 0.09168,-0.11958 0.169403,-0.27304 0.233184,-0.46039 0.06377,-0.18734 0.113598,-0.3687 0.149477,-0.54409 0.03587,-0.17539 0.06377,-0.38067 0.08371,-0.61585 0.01993,-0.23916 0.03188,-0.44444 0.03587,-0.61584 0.004,-0.17538 0.006,-0.37469 0.006,-0.59791 -4e-6,-0.30692 -0.01196,-0.58395 -0.03587,-0.83109 m -1.29148,-2.92975 c 0.346783,10e-6 0.655702,0.0797 0.926757,0.23917 0.271047,0.15546 0.488286,0.35875 0.651719,0.60986 0.163423,0.24714 0.296955,0.5461 0.400597,0.89686 0.103633,0.3468 0.175382,0.69159 0.215247,1.03438 0.03986,0.34281 0.05979,0.70753 0.05979,1.09417 -5e-6,2.69457 -0.745396,4.04186 -2.236174,4.04186 -0.346788,0 -0.655707,-0.0737 -0.926756,-0.22123 -0.267067,-0.14748 -0.484306,-0.3408 -0.651719,-0.57997 -0.163429,-0.24315 -0.298955,-0.53213 -0.406577,-0.86696 -0.107624,-0.33483 -0.183359,-0.67364 -0.227205,-1.01645 -0.03986,-0.34279 -0.05979,-0.70752 -0.05979,-1.09417 -1e-6,-0.27503 0.01,-0.54209 0.02989,-0.80119 0.01993,-0.26308 0.05381,-0.53413 0.101644,-0.81316 0.04783,-0.27901 0.109616,-0.53811 0.185351,-0.77728 0.07573,-0.24314 0.171399,-0.47234 0.286996,-0.68759 0.11958,-0.21922 0.255106,-0.40458 0.406577,-0.55605 0.155454,-0.15545 0.338812,-0.27703 0.550075,-0.36473 0.211258,-0.0917 0.442448,-0.13751 0.693572,-0.13752"
         id="path3038"
         inkscape:connector-curvature="0" />
    </g>
    <g
       transform="matrix(-1,0,0,-1,64.645738,2016.82)"
       id="g3040"
       style="font-size:12.24514198px;font-style:normal;font-variant:normal;font-weight:normal;font-stretch:normal;line-height:125%;letter-spacing:0px;word-spacing:0px;fill:#000000;fill-opacity:1;stroke:none;font-family:CosmicSansNeueMono;-inkscape-font-specification:CosmicSansNeueMono">
      <path
         inkscape:connector-curvature="0"
         id="path3042"
         d="m 10.139013,969.45785 1.010464,0.26906 0,7.68908 -0.980568,0 -0.01196,-6.36173 c -0.1953197,0.24714 -0.4783289,0.51221 -0.8490287,0.79522 -0.3707045,0.28301 -0.7593439,0.53812 -1.1659193,0.76532 l -0.4962631,-0.82511 c 1.1360221,-0.57 1.9671125,-1.34728 2.4932731,-2.33184" />
      <path
         inkscape:connector-curvature="0"
         id="path3044"
         d="m 15.011958,974.6417 2.32586,-2.97757 c -0.05581,-0.18734 -0.107628,-0.33682 -0.155456,-0.44843 -0.04784,-0.11559 -0.113606,-0.23916 -0.19731,-0.37071 -0.07972,-0.13153 -0.179375,-0.22919 -0.298953,-0.29297 -0.119585,-0.0638 -0.257104,-0.0957 -0.412556,-0.0957 -0.888891,10e-6 -1.333335,1.11012 -1.333334,3.33035 -10e-7,0.28301 0.02392,0.56801 0.07175,0.855 m 2.547085,-2.1704 -2.343796,2.99552 c 0.09168,0.33483 0.217237,0.59791 0.376681,0.78923 0.15944,0.19134 0.39063,0.287 0.693573,0.287 0.171397,0 0.324859,-0.0379 0.460388,-0.1136 0.135523,-0.0797 0.249125,-0.17738 0.340808,-0.29298 0.09167,-0.11958 0.169403,-0.27304 0.233183,-0.46039 0.06377,-0.18734 0.113599,-0.3687 0.149477,-0.54409 0.03587,-0.17539 0.06377,-0.38067 0.08371,-0.61585 0.01993,-0.23916 0.03188,-0.44444 0.03588,-0.61584 0.004,-0.17538 0.006,-0.37469 0.006,-0.59791 -4e-6,-0.30692 -0.01196,-0.58395 -0.03588,-0.83109 m -1.291479,-2.92975 c 0.346783,10e-6 0.655701,0.0797 0.926756,0.23917 0.271047,0.15546 0.488287,0.35875 0.651719,0.60986 0.163423,0.24714 0.296956,0.5461 0.400598,0.89686 0.103632,0.3468 0.175381,0.69159 0.215246,1.03438 0.03986,0.34281 0.05979,0.70753 0.05979,1.09417 -5e-6,2.69457 -0.745395,4.04186 -2.236173,4.04186 -0.346789,0 -0.655708,-0.0737 -0.926757,-0.22123 -0.267067,-0.14748 -0.484306,-0.3408 -0.651719,-0.57997 -0.163429,-0.24315 -0.298954,-0.53213 -0.406577,-0.86696 -0.107624,-0.33483 -0.183359,-0.67364 -0.227204,-1.01645 -0.03986,-0.34279 -0.05979,-0.70752 -0.05979,-1.09417 -10e-7,-0.27503 0.01,-0.54209 0.02989,-0.80119 0.01993,-0.26308 0.05381,-0.53413 0.101645,-0.81316 0.04783,-0.27901 0.109615,-0.53811 0.185351,-0.77728 0.07573,-0.24314 0.171399,-0.47234 0.286995,-0.68759 0.11958,-0.21922 0.255106,-0.40458 0.406577,-0.55605 0.155454,-0.15545 0.338812,-0.27703 0.550075,-0.36473 0.211258,-0.0917 0.442449,-0.13751 0.693573,-0.13752" />
      <path
         inkscape:connector-curvature="0"
         id="path3046"
         d="m 21.349776,974.6417 2.325859,-2.97757 c -0.05581,-0.18734 -0.107627,-0.33682 -0.155456,-0.44843 -0.04784,-0.11559 -0.113606,-0.23916 -0.197309,-0.37071 -0.07973,-0.13153 -0.179376,-0.22919 -0.298954,-0.29297 -0.119584,-0.0638 -0.257103,-0.0957 -0.412556,-0.0957 -0.888891,10e-6 -1.333335,1.11012 -1.333333,3.33035 -2e-6,0.28301 0.02391,0.56801 0.07175,0.855 m 2.547085,-2.1704 -2.343797,2.99552 c 0.09168,0.33483 0.217238,0.59791 0.376682,0.78923 0.159439,0.19134 0.39063,0.287 0.693572,0.287 0.171397,0 0.32486,-0.0379 0.460389,-0.1136 0.135522,-0.0797 0.249124,-0.17738 0.340807,-0.29298 0.09168,-0.11958 0.169403,-0.27304 0.233184,-0.46039 0.06377,-0.18734 0.113598,-0.3687 0.149477,-0.54409 0.03587,-0.17539 0.06377,-0.38067 0.08371,-0.61585 0.01993,-0.23916 0.03188,-0.44444 0.03587,-0.61584 0.004,-0.17538 0.006,-0.37469 0.006,-0.59791 -4e-6,-0.30692 -0.01196,-0.58395 -0.03587,-0.83109 m -1.29148,-2.92975 c 0.346783,10e-6 0.655702,0.0797 0.926757,0.23917 0.271047,0.15546 0.488286,0.35875 0.651719,0.60986 0.163423,0.24714 0.296955,0.5461 0.400597,0.89686 0.103633,0.3468 0.175382,0.69159 0.215247,1.03438 0.03986,0.34281 0.05979,0.70753 0.05979,1.09417 -5e-6,2.69457 -0.745396,4.04186 -2.236174,4.04186 -0.346788,0 -0.655707,-0.0737 -0.926756,-0.22123 -0.267067,-0.14748 -0.484306,-0.3408 -0.651719,-0.57997 -0.163429,-0.24315 -0.298955,-0.53213 -0.406577,-0.86696 -0.107624,-0.33483 -0.183359,-0.67364 -0.227205,-1.01645 -0.03986,-0.34279 -0.05979,-0.70752 -0.05979,-1.09417 -1e-6,-0.27503 0.01,-0.54209 0.02989,-0.80119 0.01993,-0.26308 0.05381,-0.53413 0.101644,-0.81316 0.04783,-0.27901 0.109616,-0.53811 0.185351,-0.77728 0.07573,-0.24314 0.171399,-0.47234 0.286996,-0.68759 0.11958,-0.21922 0.255106,-0.40458 0.406577,-0.55605 0.155454,-0.15545 0.338812,-0.27703 0.550075,-0.36473 0.211258,-0.0917 0.442448,-0.13751 0.693572,-0.13752" />
    </g>
  </g>
</svg>
