<svg xmlns:svg="http://www.w3.org/2000/svg" xmlns="http://www.w3.org/2000/svg" width="62" height="88" version="1.1">
<style>
.card {
	fill:#FFF;
}
</style>
<title>Card 100</title>
  <g transform="translate(0,-964.36218)">
    <g transform="matrix(1.1190475,0,0,1.1190475,-3.6904719,-120.043)" class="card">
      <path d="m16.083362 998.60256 2.46544 0.65648 0 18.76066-2.392498 0-0.02918-15.522c-0.476561 0.603-1.167078 1.2497-2.071552 1.9402-0.904486 0.6906-1.852731 1.313-2.844738 1.8673l-1.2108371-2.0132c2.7717911-1.3907 4.7995771-3.2872 6.0833621-5.68944M27.972908 1011.2507l5.674887-7.265c-0.136168-0.4571-0.262601-0.8218-0.379299-1.0941-0.116716-0.2821-0.277188-0.5836-0.481417-0.9045-0.19452-0.321-0.43766-0.5592-0.72942-0.7149-0.291776-0.1556-0.627308-0.2334-1.006599-0.2334-2.168814 0-3.253217 2.7086-3.253213 8.1258-0.000004 0.6905 0.05835 1.3859 0.175061 2.0861m6.214658-5.2956-5.718653 7.3088c0.223684 0.817 0.53004 1.4588 0.919069 1.9257 0.389018 0.4668 0.953103 0.7002 1.692255 0.7002 0.418193 0 0.792628-0.092 1.123306-0.2772 0.330662-0.1945 0.607841-0.4327 0.831539-0.7148 0.223679-0.2918 0.413328-0.6662 0.568948-1.1233 0.155599-0.4571 0.277169-0.8996 0.36471-1.3275 0.08752-0.428 0.155599-0.9288 0.204237-1.5027 0.04862-0.5835 0.07779-1.0843 0.08753-1.5026 0.0097-0.4279 0.01458-0.9142 0.01459-1.4588-0.00001-0.7489-0.02919-1.4248-0.08753-2.0278m-3.151095-7.1483c0.84612 0.00002 1.599853 0.19453 2.261202 0.58354 0.661331 0.37931 1.191376 0.87536 1.590136 1.48806 0.398738 0.603 0.724545 1.3324 0.977422 2.1882 0.252854 0.8462 0.427914 1.6874 0.525183 2.5238 0.09724 0.8364 0.145871 1.7263 0.145884 2.6697-0.000013 6.5745-1.818698 9.8617-5.456061 9.8617-0.846134 0-1.599867-0.1799-2.261202-0.5397-0.65162-0.3599-1.181664-0.8316-1.590136-1.4151-0.398752-0.5933-0.729422-1.2984-0.992011-2.1153-0.262593-0.817-0.447379-1.6436-0.554359-2.48-0.09726-0.8364-0.145886-1.7263-0.145884-2.6697-0.000002-0.6711 0.02431-1.3227 0.07294-1.9549 0.04863-0.6418 0.131294-1.3032 0.248003-1.984 0.116705-0.6808 0.267452-1.3129 0.45224-1.8965 0.184784-0.5932 0.418198-1.1525 0.700243-1.6777 0.291765-0.5348 0.622435-0.9871 0.992011-1.3567 0.379294-0.37925 0.826671-0.67588 1.342133-0.88986 0.515451-0.22367 1.079535-0.33552 1.692254-0.33554M43.436611 1011.2507l5.674887-7.265c-0.136168-0.4571-0.262601-0.8218-0.379298-1.0941-0.116717-0.2821-0.277189-0.5836-0.481418-0.9045-0.19452-0.321-0.43766-0.5592-0.72942-0.7149-0.291775-0.1556-0.627308-0.2334-1.006599-0.2334-2.168814 0-3.253217 2.7086-3.253213 8.1258-0.000004 0.6905 0.05835 1.3859 0.175061 2.0861m6.214658-5.2956-5.718653 7.3088c0.223684 0.817 0.53004 1.4588 0.919069 1.9257 0.389019 0.4668 0.953103 0.7002 1.692255 0.7002 0.418193 0 0.792628-0.092 1.123306-0.2772 0.330662-0.1945 0.607841-0.4327 0.831539-0.7148 0.22368-0.2918 0.413329-0.6662 0.568948-1.1233 0.155599-0.4571 0.277169-0.8996 0.36471-1.3275 0.08752-0.428 0.155599-0.9288 0.204237-1.5027 0.04862-0.5835 0.0778-1.0843 0.08753-1.5026 0.0097-0.4279 0.01458-0.9142 0.01459-1.4588-0.00001-0.7489-0.02919-1.4248-0.08753-2.0278m-3.151094-7.1483c0.846119 0.00002 1.599852 0.19453 2.261201 0.58354 0.661331 0.37931 1.191376 0.87536 1.590136 1.48806 0.398738 0.603 0.724545 1.3324 0.977423 2.1882 0.252853 0.8462 0.427914 1.6874 0.525182 2.5238 0.09724 0.8364 0.145871 1.7263 0.145884 2.6697-0.000013 6.5745-1.818698 9.8617-5.456061 9.8617-0.846134 0-1.599867-0.1799-2.261202-0.5397-0.65162-0.3599-1.181664-0.8316-1.590136-1.4151-0.398752-0.5933-0.729422-1.2984-0.992011-2.1153-0.262593-0.817-0.447379-1.6436-0.554359-2.48-0.09726-0.8364-0.145885-1.7263-0.145884-2.6697-0.000001-0.6711 0.02431-1.3227 0.07294-1.9549 0.04863-0.6418 0.131294-1.3032 0.248003-1.984 0.116705-0.6808 0.267452-1.3129 0.45224-1.8965 0.184784-0.5932 0.418198-1.1525 0.700243-1.6777 0.291765-0.5348 0.622435-0.9871 0.992012-1.3567 0.379293-0.37925 0.826671-0.67588 1.342132-0.88986 0.515451-0.22367 1.079535-0.33552 1.692255-0.33554"/>
    </g>
    <g transform="translate(-2.6457379,-0.09567)" class="card">
      <path d="m10.139013 969.45785 1.010464 0.26906 0 7.68908-0.980568 0-0.01196-6.36173c-0.1953197 0.24714-0.4783289 0.51221-0.8490287 0.79522-0.3707045 0.28301-0.7593439 0.53812-1.1659193 0.76532l-0.4962631-0.82511c1.1360221-0.57 1.9671125-1.34728 2.4932731-2.33184M15.011958 974.6417l2.32586-2.97757c-0.05581-0.18734-0.107628-0.33682-0.155456-0.44843-0.04784-0.11559-0.113606-0.23916-0.19731-0.37071-0.07972-0.13153-0.179375-0.22919-0.298953-0.29297-0.119585-0.0638-0.257104-0.0957-0.412556-0.0957-0.888891 0.00001-1.333335 1.11012-1.333334 3.33035-0.000001 0.28301 0.02392 0.56801 0.07175 0.855m2.547085-2.1704-2.343796 2.99552c0.09168 0.33483 0.217237 0.59791 0.376681 0.78923 0.15944 0.19134 0.39063 0.287 0.693573 0.287 0.171397 0 0.324859-0.0379 0.460388-0.1136 0.135523-0.0797 0.249125-0.17738 0.340808-0.29298 0.09167-0.11958 0.169403-0.27304 0.233183-0.46039 0.06377-0.18734 0.113599-0.3687 0.149477-0.54409 0.03587-0.17539 0.06377-0.38067 0.08371-0.61585 0.01993-0.23916 0.03188-0.44444 0.03588-0.61584 0.004-0.17538 0.006-0.37469 0.006-0.59791-0.000004-0.30692-0.01196-0.58395-0.03588-0.83109m-1.291479-2.92975c0.346783 0.00001 0.655701 0.0797 0.926756 0.23917 0.271047 0.15546 0.488287 0.35875 0.651719 0.60986 0.163423 0.24714 0.296956 0.5461 0.400598 0.89686 0.103632 0.3468 0.175381 0.69159 0.215246 1.03438 0.03986 0.34281 0.05979 0.70753 0.05979 1.09417-0.000005 2.69457-0.745395 4.04186-2.236173 4.04186-0.346789 0-0.655708-0.0737-0.926757-0.22123-0.267067-0.14748-0.484306-0.3408-0.651719-0.57997-0.163429-0.24315-0.298954-0.53213-0.406577-0.86696-0.107624-0.33483-0.183359-0.67364-0.227204-1.01645-0.03986-0.34279-0.05979-0.70752-0.05979-1.09417-0.000001-0.27503 0.01-0.54209 0.02989-0.80119 0.01993-0.26308 0.05381-0.53413 0.101645-0.81316 0.04783-0.27901 0.109615-0.53811 0.185351-0.77728 0.07573-0.24314 0.171399-0.47234 0.286995-0.68759 0.11958-0.21922 0.255106-0.40458 0.406577-0.55605 0.155454-0.15545 0.338812-0.27703 0.550075-0.36473 0.211258-0.0917 0.442449-0.13751 0.693573-0.13752M21.349776 974.6417l2.325859-2.97757c-0.05581-0.18734-0.107627-0.33682-0.155456-0.44843-0.04784-0.11559-0.113606-0.23916-0.197309-0.37071-0.07973-0.13153-0.179376-0.22919-0.298954-0.29297-0.119584-0.0638-0.257103-0.0957-0.412556-0.0957-0.888891 0.00001-1.333335 1.11012-1.333333 3.33035-0.000002 0.28301 0.02391 0.56801 0.07175 0.855m2.547085-2.1704-2.343797 2.99552c0.09168 0.33483 0.217238 0.59791 0.376682 0.78923 0.159439 0.19134 0.39063 0.287 0.693572 0.287 0.171397 0 0.32486-0.0379 0.460389-0.1136 0.135522-0.0797 0.249124-0.17738 0.340807-0.29298 0.09168-0.11958 0.169403-0.27304 0.233184-0.46039 0.06377-0.18734 0.113598-0.3687 0.149477-0.54409 0.03587-0.17539 0.06377-0.38067 0.08371-0.61585 0.01993-0.23916 0.03188-0.44444 0.03587-0.61584 0.004-0.17538 0.006-0.37469 0.006-0.59791-0.000004-0.30692-0.01196-0.58395-0.03587-0.83109m-1.29148-2.92975c0.346783 0.00001 0.655702 0.0797 0.926757 0.23917 0.271047 0.15546 0.488286 0.35875 0.651719 0.60986 0.163423 0.24714 0.296955 0.5461 0.400597 0.89686 0.103633 0.3468 0.175382 0.69159 0.215247 1.03438 0.03986 0.34281 0.05979 0.70753 0.05979 1.09417-0.000005 2.69457-0.745396 4.04186-2.236174 4.04186-0.346788 0-0.655707-0.0737-0.926756-0.22123-0.267067-0.14748-0.484306-0.3408-0.651719-0.57997-0.163429-0.24315-0.298955-0.53213-0.406577-0.86696-0.107624-0.33483-0.183359-0.67364-0.227205-1.01645-0.03986-0.34279-0.05979-0.70752-0.05979-1.09417-0.000001-0.27503 0.01-0.54209 0.02989-0.80119 0.01993-0.26308 0.05381-0.53413 0.101644-0.81316 0.04783-0.27901 0.109616-0.53811 0.185351-0.77728 0.07573-0.24314 0.171399-0.47234 0.286996-0.68759 0.11958-0.21922 0.255106-0.40458 0.406577-0.55605 0.155454-0.15545 0.338812-0.27703 0.550075-0.36473 0.211258-0.0917 0.442448-0.13751 0.693572-0.13752"/>
    </g>
    <g transform="matrix(-1,0,0,-1,64.645738,2016.82)" class="card">
      <path d="m10.139013 969.45785 1.010464 0.26906 0 7.68908-0.980568 0-0.01196-6.36173c-0.1953197 0.24714-0.4783289 0.51221-0.8490287 0.79522-0.3707045 0.28301-0.7593439 0.53812-1.1659193 0.76532l-0.4962631-0.82511c1.1360221-0.57 1.9671125-1.34728 2.4932731-2.33184M15.011958 974.6417l2.32586-2.97757c-0.05581-0.18734-0.107628-0.33682-0.155456-0.44843-0.04784-0.11559-0.113606-0.23916-0.19731-0.37071-0.07972-0.13153-0.179375-0.22919-0.298953-0.29297-0.119585-0.0638-0.257104-0.0957-0.412556-0.0957-0.888891 0.00001-1.333335 1.11012-1.333334 3.33035-0.000001 0.28301 0.02392 0.56801 0.07175 0.855m2.547085-2.1704-2.343796 2.99552c0.09168 0.33483 0.217237 0.59791 0.376681 0.78923 0.15944 0.19134 0.39063 0.287 0.693573 0.287 0.171397 0 0.324859-0.0379 0.460388-0.1136 0.135523-0.0797 0.249125-0.17738 0.340808-0.29298 0.09167-0.11958 0.169403-0.27304 0.233183-0.46039 0.06377-0.18734 0.113599-0.3687 0.149477-0.54409 0.03587-0.17539 0.06377-0.38067 0.08371-0.61585 0.01993-0.23916 0.03188-0.44444 0.03588-0.61584 0.004-0.17538 0.006-0.37469 0.006-0.59791-0.000004-0.30692-0.01196-0.58395-0.03588-0.83109m-1.291479-2.92975c0.346783 0.00001 0.655701 0.0797 0.926756 0.23917 0.271047 0.15546 0.488287 0.35875 0.651719 0.60986 0.163423 0.24714 0.296956 0.5461 0.400598 0.89686 0.103632 0.3468 0.175381 0.69159 0.215246 1.03438 0.03986 0.34281 0.05979 0.70753 0.05979 1.09417-0.000005 2.69457-0.745395 4.04186-2.236173 4.04186-0.346789 0-0.655708-0.0737-0.926757-0.22123-0.267067-0.14748-0.484306-0.3408-0.651719-0.57997-0.163429-0.24315-0.298954-0.53213-0.406577-0.86696-0.107624-0.33483-0.183359-0.67364-0.227204-1.01645-0.03986-0.34279-0.05979-0.70752-0.05979-1.09417-0.000001-0.27503 0.01-0.54209 0.02989-0.80119 0.01993-0.26308 0.05381-0.53413 0.101645-0.81316 0.04783-0.27901 0.109615-0.53811 0.185351-0.77728 0.07573-0.24314 0.171399-0.47234 0.286995-0.68759 0.11958-0.21922 0.255106-0.40458 0.406577-0.55605 0.155454-0.15545 0.338812-0.27703 0.550075-0.36473 0.211258-0.0917 0.442449-0.13751 0.693573-0.13752M21.349776 974.6417l2.325859-2.97757c-0.05581-0.18734-0.107627-0.33682-0.155456-0.44843-0.04784-0.11559-0.113606-0.23916-0.197309-0.37071-0.07973-0.13153-0.179376-0.22919-0.298954-0.29297-0.119584-0.0638-0.257103-0.0957-0.412556-0.0957-0.888891 0.00001-1.333335 1.11012-1.333333 3.33035-0.000002 0.28301 0.02391 0.56801 0.07175 0.855m2.547085-2.1704-2.343797 2.99552c0.09168 0.33483 0.217238 0.59791 0.376682 0.78923 0.159439 0.19134 0.39063 0.287 0.693572 0.287 0.171397 0 0.32486-0.0379 0.460389-0.1136 0.135522-0.0797 0.249124-0.17738 0.340807-0.29298 0.09168-0.11958 0.169403-0.27304 0.233184-0.46039 0.06377-0.18734 0.113598-0.3687 0.149477-0.54409 0.03587-0.17539 0.06377-0.38067 0.08371-0.61585 0.01993-0.23916 0.03188-0.44444 0.03587-0.61584 0.004-0.17538 0.006-0.37469 0.006-0.59791-0.000004-0.30692-0.01196-0.58395-0.03587-0.83109m-1.29148-2.92975c0.346783 0.00001 0.655702 0.0797 0.926757 0.23917 0.271047 0.15546 0.488286 0.35875 0.651719 0.60986 0.163423 0.24714 0.296955 0.5461 0.400597 0.89686 0.103633 0.3468 0.175382 0.69159 0.215247 1.03438 0.03986 0.34281 0.05979 0.70753 0.05979 1.09417-0.000005 2.69457-0.745396 4.04186-2.236174 4.04186-0.346788 0-0.655707-0.0737-0.926756-0.22123-0.267067-0.14748-0.484306-0.3408-0.651719-0.57997-0.163429-0.24315-0.298955-0.53213-0.406577-0.86696-0.107624-0.33483-0.183359-0.67364-0.227205-1.01645-0.03986-0.34279-0.05979-0.70752-0.05979-1.09417-0.000001-0.27503 0.01-0.54209 0.02989-0.80119 0.01993-0.26308 0.05381-0.53413 0.101644-0.81316 0.04783-0.27901 0.109616-0.53811 0.185351-0.77728 0.07573-0.24314 0.171399-0.47234 0.286996-0.68759 0.11958-0.21922 0.255106-0.40458 0.406577-0.55605 0.155454-0.15545 0.338812-0.27703 0.550075-0.36473 0.211258-0.0917 0.442448-0.13751 0.693572-0.13752"/>
    </g>
  </g>
</svg>