<svg xmlns:svg="http://www.w3.org/2000/svg" xmlns="http://www.w3.org/2000/svg" width="62" height="88" version="1.1">
<style>
.card {
	fill:#FFF;
}
</style>
<title>Card 3</title>
  <g transform="translate(0,-964.36218)">
    <g class="card">
      <path d="m18.89434 1017.5848 4.769812-0.03c0.02012 1.8113 0.644017 3.2906 1.871698 4.4377 1.227663 1.1271 2.918227 1.6906 5.071698 1.6906 2.374826 0 4.246523-0.6541 5.615094-1.9623 1.368533-1.3081 2.052809-3.0792 2.052831-5.3132-0.000022-1.7308-0.301909-3.1798-0.905661-4.3471-0.603794-1.1673-1.610082-2.1434-3.018868-2.9283-0.8453-0.483-1.750959-0.8453-2.716981-1.0868-0.966052-0.2415-1.750957-0.3723-2.354717-0.3925-0.58366-0.04-1.408816-0.06-2.475472-0.06l0-4.7698 0.483019 0c1.650302 0.0001 3.260364-0.2616 4.830189-0.7849 1.328285-0.4628 2.294322-1.1069 2.898113-1.9321 0.623881-0.82508 0.93583-1.97225 0.935849-3.44146-0.000019-1.12702-0.543415-2.02261-1.630188-2.6868-1.066684-0.66411-2.394984-0.99619-3.984906-0.99622-2.676741 0.00003-4.719506 1.40883-6.128302 4.22641l-4.286793-2.3849c0.06037-0.20123 0.191192-0.48299 0.392453-0.84529 0.201254-0.38235 0.573581-0.91569 1.116981-1.6 0.563517-0.68424 1.197479-1.30814 1.901887-1.8717 0.724521-0.56348 1.680495-1.05656 2.867925-1.47924 1.18741-0.44273 2.465396-0.66411 3.833962-0.66415l0.332076 0c1.891808 0.00004 3.592435 0.27174 5.101886 0.81509 1.509414 0.52331 2.757211 1.41891 3.743397 2.6868 1.006265 1.26795 1.50941 2.81764 1.509434 4.64905-0.000024 1.95223-0.382414 3.68301-1.14717 5.19241-0.744677 1.4894-1.791216 2.5359-3.139623 3.1397 4.447775 2.1534 6.671672 5.9874 6.671698 11.5019-0.000026 1.3886-0.251598 2.8377-0.754717 4.3471-0.483044 1.5095-1.197509 2.8277-2.143396 3.9547-2.113229 2.4755-5.313226 3.7132-9.6 3.7132-3.562275 0-6.410071-1.0062-8.543396-3.0188-2.113211-2.0327-3.169814-4.6189-3.169812-7.7585"/>
    </g>
    <g transform="matrix(0.20000025,0,0,0.20000025,1.2211273,771.68938)" class="card">
      <path d="m18.89434 1017.5848 4.769812-0.03c0.02012 1.8113 0.644017 3.2906 1.871698 4.4377 1.227663 1.1271 2.918227 1.6906 5.071698 1.6906 2.374826 0 4.246523-0.6541 5.615094-1.9623 1.368533-1.3081 2.052809-3.0792 2.052831-5.3132-0.000022-1.7308-0.301909-3.1798-0.905661-4.3471-0.603794-1.1673-1.610082-2.1434-3.018868-2.9283-0.8453-0.483-1.750959-0.8453-2.716981-1.0868-0.966052-0.2415-1.750957-0.3723-2.354717-0.3925-0.58366-0.04-1.408816-0.06-2.475472-0.06l0-4.7698 0.483019 0c1.650302 0.0001 3.260364-0.2616 4.830189-0.7849 1.328285-0.4628 2.294322-1.1069 2.898113-1.9321 0.623881-0.82508 0.93583-1.97225 0.935849-3.44146-0.000019-1.12702-0.543415-2.02261-1.630188-2.6868-1.066684-0.66411-2.394984-0.99619-3.984906-0.99622-2.676741 0.00003-4.719506 1.40883-6.128302 4.22641l-4.286793-2.3849c0.06037-0.20123 0.191192-0.48299 0.392453-0.84529 0.201254-0.38235 0.573581-0.91569 1.116981-1.6 0.563517-0.68424 1.197479-1.30814 1.901887-1.8717 0.724521-0.56348 1.680495-1.05656 2.867925-1.47924 1.18741-0.44273 2.465396-0.66411 3.833962-0.66415l0.332076 0c1.891808 0.00004 3.592435 0.27174 5.101886 0.81509 1.509414 0.52331 2.757211 1.41891 3.743397 2.6868 1.006265 1.26795 1.50941 2.81764 1.509434 4.64905-0.000024 1.95223-0.382414 3.68301-1.14717 5.19241-0.744677 1.4894-1.791216 2.5359-3.139623 3.1397 4.447775 2.1534 6.671672 5.9874 6.671698 11.5019-0.000026 1.3886-0.251598 2.8377-0.754717 4.3471-0.483044 1.5095-1.197509 2.8277-2.143396 3.9547-2.113229 2.4755-5.313226 3.7132-9.6 3.7132-3.562275 0-6.410071-1.0062-8.543396-3.0188-2.113211-2.0327-3.169814-4.6189-3.169812-7.7585"/>
    </g>
    <g transform="matrix(-0.20000025,0,0,-0.20000025,60.778873,1245.035)" class="card">
      <path d="m18.89434 1017.5848 4.769812-0.03c0.02012 1.8113 0.644017 3.2906 1.871698 4.4377 1.227663 1.1271 2.918227 1.6906 5.071698 1.6906 2.374826 0 4.246523-0.6541 5.615094-1.9623 1.368533-1.3081 2.052809-3.0792 2.052831-5.3132-0.000022-1.7308-0.301909-3.1798-0.905661-4.3471-0.603794-1.1673-1.610082-2.1434-3.018868-2.9283-0.8453-0.483-1.750959-0.8453-2.716981-1.0868-0.966052-0.2415-1.750957-0.3723-2.354717-0.3925-0.58366-0.04-1.408816-0.06-2.475472-0.06l0-4.7698 0.483019 0c1.650302 0.0001 3.260364-0.2616 4.830189-0.7849 1.328285-0.4628 2.294322-1.1069 2.898113-1.9321 0.623881-0.82508 0.93583-1.97225 0.935849-3.44146-0.000019-1.12702-0.543415-2.02261-1.630188-2.6868-1.066684-0.66411-2.394984-0.99619-3.984906-0.99622-2.676741 0.00003-4.719506 1.40883-6.128302 4.22641l-4.286793-2.3849c0.06037-0.20123 0.191192-0.48299 0.392453-0.84529 0.201254-0.38235 0.573581-0.91569 1.116981-1.6 0.563517-0.68424 1.197479-1.30814 1.901887-1.8717 0.724521-0.56348 1.680495-1.05656 2.867925-1.47924 1.18741-0.44273 2.465396-0.66411 3.833962-0.66415l0.332076 0c1.891808 0.00004 3.592435 0.27174 5.101886 0.81509 1.509414 0.52331 2.757211 1.41891 3.743397 2.6868 1.006265 1.26795 1.50941 2.81764 1.509434 4.64905-0.000024 1.95223-0.382414 3.68301-1.14717 5.19241-0.744677 1.4894-1.791216 2.5359-3.139623 3.1397 4.447775 2.1534 6.671672 5.9874 6.671698 11.5019-0.000026 1.3886-0.251598 2.8377-0.754717 4.3471-0.483044 1.5095-1.197509 2.8277-2.143396 3.9547-2.113229 2.4755-5.313226 3.7132-9.6 3.7132-3.562275 0-6.410071-1.0062-8.543396-3.0188-2.113211-2.0327-3.169814-4.6189-3.169812-7.7585"/>
    </g>
  </g>
</svg>