<svg xmlns:svg="http://www.w3.org/2000/svg" xmlns="http://www.w3.org/2000/svg" width="62" height="88" version="1.1">
<style>
.card {
	fill:#FFF;
}
</style>
<title>Card 5</title>
  <g transform="translate(0,-964.36218)">
    <g transform="matrix(1.5875969,0,0,1.5875969,-25.012725,979.67801)" class="card">
      <path d="m35.008011 16.348919c-1.614591 0.000014-3.085944 0.683607-4.414063 2.050781-0.02605 0.02605-0.04558 0.04558-0.05859 0.05859l-2.460938-1.054688 0.898438-11.9335933 11.699218 0.039063 0 3.0078125-8.945312 0-0.449219 5.8007818c1.184889-0.703108 2.408846-1.05467 3.671875-1.054688 1.354156 0.000018 2.610665 0.279965 3.769531 0.839843 1.197903 0.638038 2.200506 1.627619 3.007813 2.96875 0.820295 1.341158 1.230451 2.929698 1.230469 4.765625-0.000018 2.825527-0.755225 5.000004-2.265625 6.523438-1.510431 1.510417-3.489595 2.278645-5.9375 2.304687l-0.03906 0c-1.575528 0-2.962246-0.429687-4.160156-1.289062-1.1849-0.859373-2.167972-1.946612-2.949219-3.261719l2.597656-1.71875c0.598953 0.989588 1.256505 1.777348 1.972657 2.363281 0.729159 0.57292 1.595043 0.859378 2.597656 0.859375 1.627593 0.000003 2.884102-0.494788 3.769531-1.484375 0.885403-0.989578 1.328111-2.408847 1.328125-4.257812-0.000014-2.565093-0.839857-4.238269-2.519531-5.019532-0.716157-0.338527-1.497406-0.507798-2.34375-0.507812"/>
    </g>
    <g transform="matrix(0.31751938,0,0,0.31751938,-3.7653362,967.61294)" class="card">
      <path d="m35.008011 16.348919c-1.614591 0.000014-3.085944 0.683607-4.414063 2.050781-0.02605 0.02605-0.04558 0.04558-0.05859 0.05859l-2.460938-1.054688 0.898438-11.9335933 11.699218 0.039063 0 3.0078125-8.945312 0-0.449219 5.8007818c1.184889-0.703108 2.408846-1.05467 3.671875-1.054688 1.354156 0.000018 2.610665 0.279965 3.769531 0.839843 1.197903 0.638038 2.200506 1.627619 3.007813 2.96875 0.820295 1.341158 1.230451 2.929698 1.230469 4.765625-0.000018 2.825527-0.755225 5.000004-2.265625 6.523438-1.510431 1.510417-3.489595 2.278645-5.9375 2.304687l-0.03906 0c-1.575528 0-2.962246-0.429687-4.160156-1.289062-1.1849-0.859373-2.167972-1.946612-2.949219-3.261719l2.597656-1.71875c0.598953 0.989588 1.256505 1.777348 1.972657 2.363281 0.729159 0.57292 1.595043 0.859378 2.597656 0.859375 1.627593 0.000003 2.884102-0.494788 3.769531-1.484375 0.885403-0.989578 1.328111-2.408847 1.328125-4.257812-0.000014-2.565093-0.839857-4.238269-2.519531-5.019532-0.716157-0.338527-1.497406-0.507798-2.34375-0.507812"/>
    </g>
    <g transform="matrix(-0.31751938,0,0,-0.31751938,65.765336,1049.099)" class="card">
      <path d="m35.008011 16.348919c-1.614591 0.000014-3.085944 0.683607-4.414063 2.050781-0.02605 0.02605-0.04558 0.04558-0.05859 0.05859l-2.460938-1.054688 0.898438-11.9335933 11.699218 0.039063 0 3.0078125-8.945312 0-0.449219 5.8007818c1.184889-0.703108 2.408846-1.05467 3.671875-1.054688 1.354156 0.000018 2.610665 0.279965 3.769531 0.839843 1.197903 0.638038 2.200506 1.627619 3.007813 2.96875 0.820295 1.341158 1.230451 2.929698 1.230469 4.765625-0.000018 2.825527-0.755225 5.000004-2.265625 6.523438-1.510431 1.510417-3.489595 2.278645-5.9375 2.304687l-0.03906 0c-1.575528 0-2.962246-0.429687-4.160156-1.289062-1.1849-0.859373-2.167972-1.946612-2.949219-3.261719l2.597656-1.71875c0.598953 0.989588 1.256505 1.777348 1.972657 2.363281 0.729159 0.57292 1.595043 0.859378 2.597656 0.859375 1.627593 0.000003 2.884102-0.494788 3.769531-1.484375 0.885403-0.989578 1.328111-2.408847 1.328125-4.257812-0.000014-2.565093-0.839857-4.238269-2.519531-5.019532-0.716157-0.338527-1.497406-0.507798-2.34375-0.507812"/>
    </g>
  </g>
</svg>