<?xml version="1.0" encoding="UTF-8" standalone="no"?>
<svg xmlns="http://www.w3.org/2000/svg" viewBox="0 0 225 315">
    <g
       id="card5">
      <rect
         ry="30"
         rx="30"
         y="0"
         x="0"
         height="315"
         width="225"
         class="background" />
      <path
         d="m 76.78523,156.44308 6.517615,-63.943087 65.704605,0 0,15.060977 -51.876691,0 -3.875339,34.96612 q 9.42412,-5.54878 21.40244,-5.54878 17.5271,0 27.83198,11.62602 10.30488,11.53794 10.30488,31.26694 0,19.81707 -10.74526,31.26694 Q 131.39228,222.5 112.19174,222.5 q -16.998651,0 -27.743908,-9.42412 -10.745258,-9.42412 -12.242548,-26.07046 l 15.413279,0 q 1.497291,11.00948 7.838754,16.64634 6.341463,5.54878 16.734423,5.54878 11.36178,0 17.79132,-7.75068 6.51762,-7.75068 6.51762,-21.40244 0,-12.85908 -7.04607,-20.60976 -6.958,-7.83875 -18.58401,-7.83875 -10.65719,0 -16.734421,4.66802 l -4.315718,3.52304 -13.035231,-3.34689 z"
         style="fill:#ffffff"
         class="text" />
    </g>
</svg>
