<?xml version="1.0" encoding="UTF-8" standalone="no"?>
<svg xmlns="http://www.w3.org/2000/svg" viewBox="0 0 225 315">
    <g
       id="card2">
      <rect
         ry="30"
         rx="30"
         y="0"
         x="0"
         height="315"
         width="225"
         class="background" />
      <path
         d="m 155.74526,222.5 -84.024396,0 0,-11.71409 44.390246,-49.3225 q 9.8645,-11.18563 13.56369,-18.14363 3.78726,-7.04607 3.78726,-14.53252 0,-10.04065 -6.07724,-16.47019 -6.07723,-6.42954 -16.20596,-6.42954 -12.154472,0 -18.936315,6.95799 -6.693767,6.86992 -6.693767,19.20055 l -16.294038,0 q 0,-17.70326 11.361789,-28.62466 11.449865,-10.921414 30.562331,-10.921414 17.8794,0 28.27236,9.424124 10.39295,9.33604 10.39295,24.92547 0,18.93632 -24.13279,45.09485 l -34.349593,37.2561 64.383473,0 0,13.29946 z"
         style="fill:#ffffff"
         class="text" />
    </g>
</svg>
