<?xml version="1.0" encoding="UTF-8" standalone="no"?>
<svg xmlns="http://www.w3.org/2000/svg" viewBox="0 0 225 315">
    <g
       id="card13">
      <rect
         ry="30"
         rx="30"
         y="0"
         x="0"
         height="315"
         width="225"
         class="background" />
      <path
         d="m 74.221258,220.76202 -16.163101,0 0,-107.14572 -32.413101,11.90508 0,-14.59893 46.056149,-17.292776 2.520053,0 0,127.132346 z"
         style="fill:#ffffff"
         class="text" />
      <path
         d="m 144.86965,149.67914 12.07888,0 q 11.38369,-0.1738 17.90107,-5.99599 6.51738,-5.82219 6.51738,-15.72861 0,-22.24599 -22.15909,-22.24599 -10.42781,0 -16.6845,5.99599 -6.16978,5.90909 -6.16978,15.72861 l -16.0762,0 q 0,-15.03342 10.94919,-24.93984 11.0361,-9.993316 27.98129,-9.993316 17.90107,0 28.06818,9.471926 10.16711,9.47192 10.16711,26.33021 0,8.25535 -5.3877,15.98931 -5.3008,7.73395 -14.51203,11.55748 10.4278,3.30214 16.0762,10.9492 5.73529,7.64706 5.73529,18.68316 0,17.03208 -11.12299,27.0254 -11.12299,9.99331 -28.93717,9.99331 -17.81417,0 -29.02406,-9.64572 -11.12299,-9.64572 -11.12299,-25.46123 l 16.1631,0 q 0,9.99332 6.51738,15.98931 6.51738,5.99598 17.46657,5.99598 11.64439,0 17.81418,-6.08288 6.16978,-6.08289 6.16978,-17.46658 0,-11.0361 -6.77807,-16.94519 -6.77808,-5.90909 -19.55214,-6.08288 l -12.07888,0 0,-13.12166 z"
         style="fill:#ffffff"
         class="text" />
    </g>
</svg>
