<?xml version="1.0" encoding="UTF-8" standalone="no"?>
<svg xmlns="http://www.w3.org/2000/svg" viewBox="0 0 225 315">
    <g
       id="card8">
      <rect
         ry="30"
         rx="30"
         y="0"
         x="0"
         height="315"
         width="225"
         class="background" />
      <path
         d="m 149.77941,127.25935 q 0,9.47193 -5.0401,16.85829 -4.95321,7.38636 -13.46926,11.55749 9.90642,4.25802 15.64171,12.42647 5.8222,8.16845 5.8222,18.50936 0,16.42379 -11.123,26.15641 -11.03609,9.73262 -29.11096,9.73262 -18.248662,0 -29.284758,-9.73262 -10.949198,-9.81952 -10.949198,-26.15641 0,-10.25402 5.561498,-18.50936 5.648395,-8.25535 15.554812,-12.51337 -8.429144,-4.17112 -13.295454,-11.55749 -4.86631,-7.38636 -4.86631,-16.77139 0,-15.9893 10.25401,-25.37433 10.254011,-9.385026 27.0254,-9.385026 16.68449,0 26.9385,9.385026 10.34091,9.38503 10.34091,25.37433 z m -13.12166,59.00401 q 0,-10.6016 -6.77807,-17.29278 -6.69118,-6.69118 -17.55348,-6.69118 -10.8623,0 -17.466573,6.60428 -6.51738,6.60428 -6.51738,17.37968 0,10.7754 6.343583,16.94519 6.43048,6.16978 17.81417,6.16978 11.29679,0 17.72727,-6.16978 6.43048,-6.25669 6.43048,-16.94519 z M 112.5,105.70855 q -9.47192,0 -15.381015,5.90909 -5.822192,5.82219 -5.822192,15.90241 0,9.64572 5.735294,15.64171 5.822193,5.90909 15.467913,5.90909 9.64572,0 15.38102,-5.90909 5.82219,-5.99599 5.82219,-15.64171 0,-9.64572 -5.99599,-15.72861 -5.99599,-6.08289 -15.20722,-6.08289 z"
         style="fill:#ffffff"
         class="text" />
    </g>
</svg>
