<?xml version="1.0" encoding="UTF-8" standalone="no"?>
<svg xmlns="http://www.w3.org/2000/svg" viewBox="0 0 225 315">
    <g
       id="card34">
      <rect
         ry="30"
         rx="30"
         y="0"
         x="0"
         height="315"
         width="225"
         class="background" />
      <path
         d="m 44.284761,149.67914 12.078877,0 q 11.383689,-0.1738 17.901069,-5.99599 6.517379,-5.82219 6.517379,-15.72861 0,-22.24599 -22.15909,-22.24599 -10.427807,0 -16.684492,5.99599 -6.169786,5.90909 -6.169786,15.72861 l -16.076203,0 q 0,-15.03342 10.949198,-24.93984 11.036096,-9.993316 27.981283,-9.993316 17.901069,0 28.068181,9.471926 10.167112,9.47192 10.167112,26.33021 0,8.25535 -5.3877,15.98931 -5.300802,7.73395 -14.512032,11.55748 10.427807,3.30214 16.076203,10.9492 5.735294,7.64706 5.735294,18.68316 0,17.03208 -11.122995,27.0254 -11.122994,9.99331 -28.937165,9.99331 -17.81417,0 -29.024063,-9.64572 -11.122995,-9.64572 -11.122995,-25.46123 l 16.163102,0 q 0,9.99332 6.517379,15.98931 6.51738,5.99598 17.466577,5.99598 11.644385,0 17.814171,-6.08288 6.169786,-6.08289 6.169786,-17.46658 0,-11.0361 -6.778075,-16.94519 -6.778074,-5.90909 -19.552138,-6.08288 l -12.078877,0 0,-13.12166 z"
         style="fill:#ffffff"
         class="text" />
      <path
         d="m 188.88369,178.26871 17.55347,0 0,13.12166 -17.55347,0 0,29.37165 -16.1631,0 0,-29.37165 -57.61364,0 0,-9.47193 56.65775,-87.680478 17.11899,0 0,84.030748 z m -55.52808,0 39.36498,0 0,-62.04545 -1.91177,3.47593 -37.45321,58.56952 z"
         style="fill:#ffffff"
         class="text" />
    </g>
</svg>
