<svg xmlns:svg="http://www.w3.org/2000/svg" xmlns="http://www.w3.org/2000/svg" width="62" height="88" version="1.1">
<style>
.card {
	fill:#FFF;
}
</style>
<title>Card ?</title>
  <g transform="translate(0,-964.36218)">
    <g transform="matrix(1.5317876,0,0,1.5317876,-23.507191,983.65846)" class="card">
      <path d="m36.043024 3.0707417c2.21353 0.0000261 3.880195 0.5924734 5 1.7773437 1.132797 1.1718982 1.699202 2.8190319 1.699219 4.9414063-0.000017 0.5859563-0.09767 1.1653823-0.292969 1.7382813-0.182308 0.572934-0.38413 1.054704-0.605469 1.445312-0.208348 0.37762-0.527359 0.800797-0.957031 1.269532-0.429702 0.455743-0.755222 0.787774-0.976562 0.996093-0.221368 0.195327-0.559909 0.481785-1.015625 0.859375-1.419283 1.197929-2.128917 2.454438-2.128907 3.769532l0 0.898437-3.417968 0 0-0.859375c-0.000008-1.10676 0.221346-2.070301 0.664062-2.890625 0.4427-0.83332 1.106762-1.640611 1.992188-2.421875 0.234365-0.208318 0.598947-0.514308 1.09375-0.917969 0.49478-0.41665 0.846342-0.72264 1.054687-0.917968 0.208321-0.208317 0.449206-0.475244 0.722656-0.800782 0.286446-0.338524 0.481758-0.670555 0.585938-0.996093 0.104153-0.325503 0.156236-0.690086 0.15625-1.0937503-0.000014-1.1458129-0.312513-2.0572703-0.9375-2.734375-0.625012-0.6900815-1.556001-1.0351332-2.792969-1.0351563-1.27605 0.0000231-2.324226 0.3190332-3.144531 0.9570313-0.820318 0.6380423-1.236985 1.5755413-1.25 2.8125-0.000005 0.7422063 0.358067 1.5560073 1.074219 2.4414063l-2.617188 1.757812c-1.015628-1.484358-1.52344-2.851544-1.523437-4.1015621-0.000003-1.145813 0.20182-2.1679474 0.605468-3.0664062 0.416664-0.8984144 0.976559-1.6210699 1.679688-2.1679688 0.71614-0.54685 1.523431-0.9570058 2.421875-1.2304687 0.91145-0.2864324 1.881501-0.4296614 2.910156-0.4296875m-3.359375 20.8398433 4.882813 0 0 5.273438-4.882813 0 0-5.273438"/>
    </g>
    <g transform="matrix(0.30635752,0,0,0.30635752,-3.7084689,968.42144)" class="card">
      <path d="m36.043024 3.0707417c2.21353 0.0000261 3.880195 0.5924734 5 1.7773437 1.132797 1.1718982 1.699202 2.8190319 1.699219 4.9414063-0.000017 0.5859563-0.09767 1.1653823-0.292969 1.7382813-0.182308 0.572934-0.38413 1.054704-0.605469 1.445312-0.208348 0.37762-0.527359 0.800797-0.957031 1.269532-0.429702 0.455743-0.755222 0.787774-0.976562 0.996093-0.221368 0.195327-0.559909 0.481785-1.015625 0.859375-1.419283 1.197929-2.128917 2.454438-2.128907 3.769532l0 0.898437-3.417968 0 0-0.859375c-0.000008-1.10676 0.221346-2.070301 0.664062-2.890625 0.4427-0.83332 1.106762-1.640611 1.992188-2.421875 0.234365-0.208318 0.598947-0.514308 1.09375-0.917969 0.49478-0.41665 0.846342-0.72264 1.054687-0.917968 0.208321-0.208317 0.449206-0.475244 0.722656-0.800782 0.286446-0.338524 0.481758-0.670555 0.585938-0.996093 0.104153-0.325503 0.156236-0.690086 0.15625-1.0937503-0.000014-1.1458129-0.312513-2.0572703-0.9375-2.734375-0.625012-0.6900815-1.556001-1.0351332-2.792969-1.0351563-1.27605 0.0000231-2.324226 0.3190332-3.144531 0.9570313-0.820318 0.6380423-1.236985 1.5755413-1.25 2.8125-0.000005 0.7422063 0.358067 1.5560073 1.074219 2.4414063l-2.617188 1.757812c-1.015628-1.484358-1.52344-2.851544-1.523437-4.1015621-0.000003-1.145813 0.20182-2.1679474 0.605468-3.0664062 0.416664-0.8984144 0.976559-1.6210699 1.679688-2.1679688 0.71614-0.54685 1.523431-0.9570058 2.421875-1.2304687 0.91145-0.2864324 1.881501-0.4296614 2.910156-0.4296875m-3.359375 20.8398433 4.882813 0 0 5.273438-4.882813 0 0-5.273438"/>
    </g>
    <g transform="matrix(-0.30635752,0,0,-0.30635752,65.708469,1048.3029)" class="card">
      <path d="m36.043024 3.0707417c2.21353 0.0000261 3.880195 0.5924734 5 1.7773437 1.132797 1.1718982 1.699202 2.8190319 1.699219 4.9414063-0.000017 0.5859563-0.09767 1.1653823-0.292969 1.7382813-0.182308 0.572934-0.38413 1.054704-0.605469 1.445312-0.208348 0.37762-0.527359 0.800797-0.957031 1.269532-0.429702 0.455743-0.755222 0.787774-0.976562 0.996093-0.221368 0.195327-0.559909 0.481785-1.015625 0.859375-1.419283 1.197929-2.128917 2.454438-2.128907 3.769532l0 0.898437-3.417968 0 0-0.859375c-0.000008-1.10676 0.221346-2.070301 0.664062-2.890625 0.4427-0.83332 1.106762-1.640611 1.992188-2.421875 0.234365-0.208318 0.598947-0.514308 1.09375-0.917969 0.49478-0.41665 0.846342-0.72264 1.054687-0.917968 0.208321-0.208317 0.449206-0.475244 0.722656-0.800782 0.286446-0.338524 0.481758-0.670555 0.585938-0.996093 0.104153-0.325503 0.156236-0.690086 0.15625-1.0937503-0.000014-1.1458129-0.312513-2.0572703-0.9375-2.734375-0.625012-0.6900815-1.556001-1.0351332-2.792969-1.0351563-1.27605 0.0000231-2.324226 0.3190332-3.144531 0.9570313-0.820318 0.6380423-1.236985 1.5755413-1.25 2.8125-0.000005 0.7422063 0.358067 1.5560073 1.074219 2.4414063l-2.617188 1.757812c-1.015628-1.484358-1.52344-2.851544-1.523437-4.1015621-0.000003-1.145813 0.20182-2.1679474 0.605468-3.0664062 0.416664-0.8984144 0.976559-1.6210699 1.679688-2.1679688 0.71614-0.54685 1.523431-0.9570058 2.421875-1.2304687 0.91145-0.2864324 1.881501-0.4296614 2.910156-0.4296875m-3.359375 20.8398433 4.882813 0 0 5.273438-4.882813 0 0-5.273438"/>
    </g>
  </g>
</svg>