<svg xmlns:svg="http://www.w3.org/2000/svg" xmlns="http://www.w3.org/2000/svg" width="62" height="88" version="1.1">
<style>
.card {
	fill:#FFF;
}
</style>
<title>Card 1/2</title>
  <g transform="translate(0,-964.36218)" class="card">
    <path d="m14.27697 997.41664 2.746542 0.73133 0 20.89973-2.665283 0-0.0325-17.2918c-0.530898 0.6717-1.300145 1.3922-2.307745 2.1614-1.007613 0.7693-2.0639742 1.4627-3.1690876 2.0803l-1.3488936-2.2428c3.0878242-1.5493 5.3468122-3.662 6.7769712-6.33816M24.596818 1020.2016c0.01083-0.022 0.07042-0.1517 0.178769-0.3901 0.108343-0.2275 0.222105-0.4713 0.341287-0.7313 0.130011-0.26 0.238356-0.493 0.325034-0.6988 5.287222-12.3838 8.467141-20.00047 9.539766-22.84996l2.405256 0.9426c-1.040124 2.6653-4.501739 10.90496-10.384856 24.71886l-2.405256-0.9913M45.090249 1004.9737l-2.437759 0.5851c-0.184189-0.5851-0.292533-1.1918-0.325035-1.8202-0.000002-0.054-0.0054-0.1246-0.01625-0.2113-0.000003-0.087-0.000003-0.1517 0-0.195-0.000003-1.7444 0.56339-3.1203 1.690179-4.12797 1.126782-1.01842 2.529847-1.52764 4.209198-1.52766 3.98708 0.00002 5.980623 2.04774 5.980637 6.14313-0.000014 1.6902-0.861355 3.4508-2.584025 5.2818-0.455059 0.4551-1.256811 1.1648-2.405256 2.129-1.148463 0.9643-2.004387 1.7227-2.567773 2.2753-0.530896 0.52-0.931772 1.0455-1.202628 1.5764-0.270867 0.52-0.417133 0.9534-0.438797 1.3001l9.507262-0.032 0 2.519-12.335063 0c-0.000002-0.1625-0.0054-0.4117-0.01625-0.7476-0.01084-0.3467-0.01625-0.6121-0.01625-0.7963-0.000002-0.5092 0.0325-0.948 0.09751-1.3164 0.292529-1.6035 1.224294-3.1366 2.795297-4.5992 0.574223-0.5309 1.381391-1.2081 2.421508-2.0315 1.040103-0.8342 1.77143-1.4572 2.193984-1.8689 0.606721-0.5743 1.083438-1.1972 1.430152-1.869 0.357527-0.6825 0.536296-1.2784 0.536307-1.7877-0.000011-1.0401-0.270873-1.9068-0.812586-2.6003-0.5309-0.6933-1.348903-1.04-2.454012-1.0401-1.09429 0.0001-1.944796 0.3088-2.551521 0.9264-0.606736 0.6176-0.910102 1.5548-0.910097 2.8115-0.000005 0.2926 0.07042 0.6339 0.211272 1.0239"/>
    <g transform="matrix(0.31175155,0,0,0.31175155,2.6618625,659.00371)" class="card">
      <path d="m14.27697 997.41664 2.746542 0.73133 0 20.89973-2.665283 0-0.0325-17.2918c-0.530898 0.6717-1.300145 1.3922-2.307745 2.1614-1.007613 0.7693-2.0639742 1.4627-3.1690876 2.0803l-1.3488936-2.2428c3.0878242-1.5493 5.3468122-3.662 6.7769712-6.33816M24.596818 1020.2016c0.01083-0.022 0.07042-0.1517 0.178769-0.3901 0.108343-0.2275 0.222105-0.4713 0.341287-0.7313 0.130011-0.26 0.238356-0.493 0.325034-0.6988 5.287222-12.3838 8.467141-20.00047 9.539766-22.84996l2.405256 0.9426c-1.040124 2.6653-4.501739 10.90496-10.384856 24.71886l-2.405256-0.9913M45.090249 1004.9737l-2.437759 0.5851c-0.184189-0.5851-0.292533-1.1918-0.325035-1.8202-0.000002-0.054-0.0054-0.1246-0.01625-0.2113-0.000003-0.087-0.000003-0.1517 0-0.195-0.000003-1.7444 0.56339-3.1203 1.690179-4.12797 1.126782-1.01842 2.529847-1.52764 4.209198-1.52766 3.98708 0.00002 5.980623 2.04774 5.980637 6.14313-0.000014 1.6902-0.861355 3.4508-2.584025 5.2818-0.455059 0.4551-1.256811 1.1648-2.405256 2.129-1.148463 0.9643-2.004387 1.7227-2.567773 2.2753-0.530896 0.52-0.931772 1.0455-1.202628 1.5764-0.270867 0.52-0.417133 0.9534-0.438797 1.3001l9.507262-0.032 0 2.519-12.335063 0c-0.000002-0.1625-0.0054-0.4117-0.01625-0.7476-0.01084-0.3467-0.01625-0.6121-0.01625-0.7963-0.000002-0.5092 0.0325-0.948 0.09751-1.3164 0.292529-1.6035 1.224294-3.1366 2.795297-4.5992 0.574223-0.5309 1.381391-1.2081 2.421508-2.0315 1.040103-0.8342 1.77143-1.4572 2.193984-1.8689 0.606721-0.5743 1.083438-1.1972 1.430152-1.869 0.357527-0.6825 0.536296-1.2784 0.536307-1.7877-0.000011-1.0401-0.270873-1.9068-0.812586-2.6003-0.5309-0.6933-1.348903-1.04-2.454012-1.0401-1.09429 0.0001-1.944796 0.3088-2.551521 0.9264-0.606736 0.6176-0.910102 1.5548-0.910097 2.8115-0.000005 0.2926 0.07042 0.6339 0.211272 1.0239"/>
    </g>
    <g transform="matrix(-0.31175155,0,0,-0.31175155,59.338137,1357.7206)" class="card">
      <path d="m14.27697 997.41664 2.746542 0.73133 0 20.89973-2.665283 0-0.0325-17.2918c-0.530898 0.6717-1.300145 1.3922-2.307745 2.1614-1.007613 0.7693-2.0639742 1.4627-3.1690876 2.0803l-1.3488936-2.2428c3.0878242-1.5493 5.3468122-3.662 6.7769712-6.33816M24.596818 1020.2016c0.01083-0.022 0.07042-0.1517 0.178769-0.3901 0.108343-0.2275 0.222105-0.4713 0.341287-0.7313 0.130011-0.26 0.238356-0.493 0.325034-0.6988 5.287222-12.3838 8.467141-20.00047 9.539766-22.84996l2.405256 0.9426c-1.040124 2.6653-4.501739 10.90496-10.384856 24.71886l-2.405256-0.9913M45.090249 1004.9737l-2.437759 0.5851c-0.184189-0.5851-0.292533-1.1918-0.325035-1.8202-0.000002-0.054-0.0054-0.1246-0.01625-0.2113-0.000003-0.087-0.000003-0.1517 0-0.195-0.000003-1.7444 0.56339-3.1203 1.690179-4.12797 1.126782-1.01842 2.529847-1.52764 4.209198-1.52766 3.98708 0.00002 5.980623 2.04774 5.980637 6.14313-0.000014 1.6902-0.861355 3.4508-2.584025 5.2818-0.455059 0.4551-1.256811 1.1648-2.405256 2.129-1.148463 0.9643-2.004387 1.7227-2.567773 2.2753-0.530896 0.52-0.931772 1.0455-1.202628 1.5764-0.270867 0.52-0.417133 0.9534-0.438797 1.3001l9.507262-0.032 0 2.519-12.335063 0c-0.000002-0.1625-0.0054-0.4117-0.01625-0.7476-0.01084-0.3467-0.01625-0.6121-0.01625-0.7963-0.000002-0.5092 0.0325-0.948 0.09751-1.3164 0.292529-1.6035 1.224294-3.1366 2.795297-4.5992 0.574223-0.5309 1.381391-1.2081 2.421508-2.0315 1.040103-0.8342 1.77143-1.4572 2.193984-1.8689 0.606721-0.5743 1.083438-1.1972 1.430152-1.869 0.357527-0.6825 0.536296-1.2784 0.536307-1.7877-0.000011-1.0401-0.270873-1.9068-0.812586-2.6003-0.5309-0.6933-1.348903-1.04-2.454012-1.0401-1.09429 0.0001-1.944796 0.3088-2.551521 0.9264-0.606736 0.6176-0.910102 1.5548-0.910097 2.8115-0.000005 0.2926 0.07042 0.6339 0.211272 1.0239"/>
    </g>
  </g>
</svg>