<?xml version="1.0" encoding="UTF-8" standalone="no"?>
<svg xmlns="http://www.w3.org/2000/svg" viewBox="0 0 225 315">
    <g
       id="card0">
      <rect
         ry="30"
         rx="30"
         y="0"
         x="0"
         height="315"
         width="225"
         class="background" />
      <path
         d="m 152.42981,166.79812 q 0,28.24198 -9.64572,41.97193 -9.64572,13.72994 -30.15374,13.72994 -20.247327,0 -29.979947,-13.38235 -9.73262,-13.46925 -10.080214,-40.14706 l 0,-21.4639 q 0,-27.89439 9.645722,-41.45054 9.645722,-13.556146 30.240639,-13.556146 20.42112,0 30.06685,13.121656 9.64572,13.03476 9.90641,40.32086 l 0,20.85561 z m -16.0762,-21.98529 q 0,-20.42112 -5.73529,-29.71925 -5.7353,-9.38503 -18.16177,-9.38503 -12.33957,0 -17.987966,9.29813 -5.648395,9.29813 -5.822192,28.58957 l 0,25.72192 q 0,20.50803 5.909091,30.32754 5.995987,9.73262 18.074867,9.73262 11.90508,0 17.64037,-9.21123 5.8222,-9.21123 6.08289,-29.02406 l 0,-26.33021 z"
         style="fill:#ffffff"
         class="text" />
    </g>
</svg>
