<svg xmlns:svg="http://www.w3.org/2000/svg" xmlns="http://www.w3.org/2000/svg" width="62" height="88" version="1.1">
<style>
.card {
	fill:#FFF;
}
</style>
<title>Card 13</title>
  <g transform="translate(0,-964.36218)">
    <g transform="translate(0,1.5e-4)" class="card">
      <path d="m19.560044 992.95606 3.874454 1.03165 0 29.48249-3.759825 0-0.04585-24.39297c-0.748919 0.94767-1.834071 1.96397-3.255458 3.04917-1.421405 1.0851-2.911578 2.0633-4.470524 2.9345L10 1001.8971c4.355889-2.18556 7.542567-5.16591 9.560044-8.94104M33.613537 1015.5838l3.622271-0.023c0.01528 1.3755 0.489077 2.4989 1.421397 3.37 0.932307 0.8559 2.216148 1.2839 3.851529 1.2839 1.803481 0 3.224877-0.4967 4.264192-1.4902 1.039285-0.9934 1.558935-2.3384 1.558952-4.0349-0.000017-1.3144-0.229274-2.4149-0.687773-3.3013-0.458531-0.8865-1.222722-1.6277-2.292577-2.2238-0.641934-0.3668-1.329706-0.6419-2.063318-0.8254-0.733636-0.1833-1.329705-0.2827-1.78821-0.298-0.443241-0.03-1.069878-0.046-1.879913-0.046l0-3.6223 0.366812 0c1.253266 0 2.475972-0.1987 3.668123-0.5961 1.008721-0.3515 1.742344-0.8406 2.200873-1.4672 0.473785-0.6266 0.710684-1.4978 0.710699-2.61357-0.000015-0.85587-0.412678-1.536-1.237991-2.04039-0.810057-0.50434-1.818789-0.75653-3.026201-0.75655-2.03276 0.00002-3.584068 1.06989-4.65393 3.20961l-3.255459-1.81114c0.04585-0.15281 0.145194-0.36679 0.298035-0.64192 0.152835-0.29037 0.435586-0.69539 0.848253-1.21507 0.427944-0.51962 0.909384-0.99342 1.444323-1.4214 0.550213-0.42791 1.276195-0.80237 2.177948-1.12336 0.901738-0.33621 1.872262-0.50434 2.911572-0.50436l0.252183 0c1.43667 0.00002 2.728153 0.20636 3.874455 0.61899 1.146272 0.39741 2.09387 1.07754 2.842794 2.04039 0.764175 0.96291 1.14627 2.13977 1.146289 3.53057-0.000019 1.4826-0.290411 2.797-0.871179 3.9432-0.56552 1.1311-1.360279 1.9258-2.38428 2.3843 3.377711 1.6354 5.066574 4.547 5.066594 8.7347-0.00002 1.0546-0.191068 2.1551-0.573144 3.3013-0.366832 1.1463-0.909407 2.1474-1.627729 3.0033-1.60482 1.8799-4.034949 2.8199-7.290393 2.8199-2.705249 0-4.86791-0.7642-6.487992-2.2926-1.604806-1.5437-2.407207-3.5076-2.407205-5.8919"/>
    </g>
    <g transform="matrix(0.25963961,0,0,0.25963961,2.4036039,711.55146)" class="card">
      <path d="m19.560044 992.95606 3.874454 1.03165 0 29.48249-3.759825 0-0.04585-24.39297c-0.748919 0.94767-1.834071 1.96397-3.255458 3.04917-1.421405 1.0851-2.911578 2.0633-4.470524 2.9345L10 1001.8971c4.355889-2.18556 7.542567-5.16591 9.560044-8.94104M33.613537 1015.5838l3.622271-0.023c0.01528 1.3755 0.489077 2.4989 1.421397 3.37 0.932307 0.8559 2.216148 1.2839 3.851529 1.2839 1.803481 0 3.224877-0.4967 4.264192-1.4902 1.039285-0.9934 1.558935-2.3384 1.558952-4.0349-0.000017-1.3144-0.229274-2.4149-0.687773-3.3013-0.458531-0.8865-1.222722-1.6277-2.292577-2.2238-0.641934-0.3668-1.329706-0.6419-2.063318-0.8254-0.733636-0.1833-1.329705-0.2827-1.78821-0.298-0.443241-0.03-1.069878-0.046-1.879913-0.046l0-3.6223 0.366812 0c1.253266 0 2.475972-0.1987 3.668123-0.5961 1.008721-0.3515 1.742344-0.8406 2.200873-1.4672 0.473785-0.6266 0.710684-1.4978 0.710699-2.61357-0.000015-0.85587-0.412678-1.536-1.237991-2.04039-0.810057-0.50434-1.818789-0.75653-3.026201-0.75655-2.03276 0.00002-3.584068 1.06989-4.65393 3.20961l-3.255459-1.81114c0.04585-0.15281 0.145194-0.36679 0.298035-0.64192 0.152835-0.29037 0.435586-0.69539 0.848253-1.21507 0.427944-0.51962 0.909384-0.99342 1.444323-1.4214 0.550213-0.42791 1.276195-0.80237 2.177948-1.12336 0.901738-0.33621 1.872262-0.50434 2.911572-0.50436l0.252183 0c1.43667 0.00002 2.728153 0.20636 3.874455 0.61899 1.146272 0.39741 2.09387 1.07754 2.842794 2.04039 0.764175 0.96291 1.14627 2.13977 1.146289 3.53057-0.000019 1.4826-0.290411 2.797-0.871179 3.9432-0.56552 1.1311-1.360279 1.9258-2.38428 2.3843 3.377711 1.6354 5.066574 4.547 5.066594 8.7347-0.00002 1.0546-0.191068 2.1551-0.573144 3.3013-0.366832 1.1463-0.909407 2.1474-1.627729 3.0033-1.60482 1.8799-4.034949 2.8199-7.290393 2.8199-2.705249 0-4.86791-0.7642-6.487992-2.2926-1.604806-1.5437-2.407207-3.5076-2.407205-5.8919"/>
    </g>
    <g transform="matrix(-0.25963961,0,0,-0.25963961,59.596396,1305.1729)" class="card">
      <path d="m19.560044 992.95606 3.874454 1.03165 0 29.48249-3.759825 0-0.04585-24.39297c-0.748919 0.94767-1.834071 1.96397-3.255458 3.04917-1.421405 1.0851-2.911578 2.0633-4.470524 2.9345L10 1001.8971c4.355889-2.18556 7.542567-5.16591 9.560044-8.94104M33.613537 1015.5838l3.622271-0.023c0.01528 1.3755 0.489077 2.4989 1.421397 3.37 0.932307 0.8559 2.216148 1.2839 3.851529 1.2839 1.803481 0 3.224877-0.4967 4.264192-1.4902 1.039285-0.9934 1.558935-2.3384 1.558952-4.0349-0.000017-1.3144-0.229274-2.4149-0.687773-3.3013-0.458531-0.8865-1.222722-1.6277-2.292577-2.2238-0.641934-0.3668-1.329706-0.6419-2.063318-0.8254-0.733636-0.1833-1.329705-0.2827-1.78821-0.298-0.443241-0.03-1.069878-0.046-1.879913-0.046l0-3.6223 0.366812 0c1.253266 0 2.475972-0.1987 3.668123-0.5961 1.008721-0.3515 1.742344-0.8406 2.200873-1.4672 0.473785-0.6266 0.710684-1.4978 0.710699-2.61357-0.000015-0.85587-0.412678-1.536-1.237991-2.04039-0.810057-0.50434-1.818789-0.75653-3.026201-0.75655-2.03276 0.00002-3.584068 1.06989-4.65393 3.20961l-3.255459-1.81114c0.04585-0.15281 0.145194-0.36679 0.298035-0.64192 0.152835-0.29037 0.435586-0.69539 0.848253-1.21507 0.427944-0.51962 0.909384-0.99342 1.444323-1.4214 0.550213-0.42791 1.276195-0.80237 2.177948-1.12336 0.901738-0.33621 1.872262-0.50434 2.911572-0.50436l0.252183 0c1.43667 0.00002 2.728153 0.20636 3.874455 0.61899 1.146272 0.39741 2.09387 1.07754 2.842794 2.04039 0.764175 0.96291 1.14627 2.13977 1.146289 3.53057-0.000019 1.4826-0.290411 2.797-0.871179 3.9432-0.56552 1.1311-1.360279 1.9258-2.38428 2.3843 3.377711 1.6354 5.066574 4.547 5.066594 8.7347-0.00002 1.0546-0.191068 2.1551-0.573144 3.3013-0.366832 1.1463-0.909407 2.1474-1.627729 3.0033-1.60482 1.8799-4.034949 2.8199-7.290393 2.8199-2.705249 0-4.86791-0.7642-6.487992-2.2926-1.604806-1.5437-2.407207-3.5076-2.407205-5.8919"/>
    </g>
  </g>
</svg>