<svg>
  <defs>
    <g id="card0">
      <path
         d="m 18.143048,13.430481 q 0,4.34492 -1.483957,6.457219 Q 15.175134,22 12.020054,22 8.9050805,22 7.4077543,19.941176 5.9104281,17.868984 5.8569522,13.764706 l 0,-3.302139 q 0,-4.2914438 1.4839572,-6.3770053 1.4839572,-2.0855615 4.6524066,-2.0855615 3.141711,0 4.625668,2.0187166 1.483957,2.0053475 1.524064,6.2032082 l 0,3.208556 z m -2.473262,-3.382353 q 0,-3.1417107 -0.882353,-4.572192 -0.882353,-1.4438502 -2.794117,-1.4438502 -1.898396,0 -2.7673799,1.4304812 -0.868984,1.4304813 -0.8957219,4.3983957 l 0,3.9572193 q 0,3.15508 0.9090909,4.665775 0.9224599,1.497326 2.7807489,1.497326 1.83155,0 2.713903,-1.417112 0.895722,-1.417112 0.935829,-4.46524 l 0,-4.050803 z" />
    </g>
    <g id="card1">
      <path
         d="m 15.820916,22 -2.542721,0 0,-16.8557763 -5.0991111,1.872864 0,-2.2966508 7.2453861,-2.7204375 0.396446,0 0,20.0000006 z" />
    </g>
    <g id="card2">
      <path
         d="m 18.653116,22 -12.9268287,0 0,-1.802168 6.8292687,-7.588076 q 1.517615,-1.720867 2.08672,-2.7913276 0.582656,-1.0840109 0.582656,-2.2357724 0,-1.5447154 -0.934959,-2.5338753 -0.93496,-0.9891598 -2.493225,-0.9891598 -1.8699187,0 -2.9132792,1.0704606 Q 7.8536586,6.1869921 7.8536586,8.084011 l -2.5067751,0 q 0,-2.7235772 1.7479675,-4.4037939 1.7615176,-1.6802168 4.701897,-1.6802168 2.750677,0 4.349593,1.4498645 1.598916,1.4363143 1.598916,3.8346883 0,2.9132789 -3.712737,6.9376689 l -5.2845525,5.731708 9.9051485,0 0,2.04607 z" />
    </g>
    <g id="card3">
      <path
         d="m 9.7874334,10.796792 1.8582886,0 q 1.751337,-0.02674 2.754011,-0.9224603 1.002674,-0.895722 1.002674,-2.4197861 0,-3.4224598 -3.409091,-3.4224598 -1.604278,0 -2.5668452,0.9224598 Q 8.477273,5.8636365 8.477273,7.3743317 l -2.473262,0 q 0,-2.3128342 1.6844919,-3.8368983 1.697861,-1.5374332 4.3048131,-1.5374332 2.75401,0 4.318181,1.4572192 1.564172,1.4572193 1.564172,4.0508021 0,1.2700535 -0.828877,2.459893 -0.815508,1.1898395 -2.232621,1.7780745 1.604278,0.508022 2.473262,1.684492 0.882353,1.176471 0.882353,2.874332 0,2.620321 -1.71123,4.157754 Q 14.747326,22 12.006685,22 9.266043,22 7.5414441,20.516043 5.8302142,19.032086 5.8302142,16.59893 l 2.486631,0 q 0,1.537434 1.0026738,2.459893 1.002674,0.92246 2.687166,0.92246 1.791444,0 2.740641,-0.935828 0.949198,-0.935829 0.949198,-2.687166 0,-1.697861 -1.042781,-2.606952 -1.04278,-0.909091 -3.008021,-0.935829 l -1.8582886,0 0,-2.018716 z" />
    </g>
    <g id="card5">
      <path
         d="m 6.5054201,11.837398 1.00271,-9.8373987 10.1084009,0 0,2.3170731 -7.9810296,0 -0.596206,5.3794037 Q 10.48916,8.8428176 12.331978,8.8428176 q 2.696477,0 4.281843,1.7886174 1.585366,1.775068 1.585366,4.810298 0,3.048781 -1.653117,4.810299 -1.639566,1.747967 -4.593495,1.747967 -2.6151766,0 -4.2682931,-1.449864 Q 6.0311654,19.10027 5.8008131,16.539294 l 2.3712737,0 q 0.2303523,1.693767 1.205962,2.560976 0.9756102,0.853659 2.5745262,0.853659 1.747967,0 2.737127,-1.192412 1.00271,-1.192412 1.00271,-3.292683 0,-1.97832 -1.084011,-3.170732 -1.070461,-1.205962 -2.859079,-1.205962 -1.639566,0 -2.5745252,0.718157 L 8.5108402,12.352303 6.5054201,11.837398 Z" />
    </g>
    <g id="card8">
      <path
         d="m 17.735294,7.3475937 q 0,1.4572193 -0.775401,2.5935829 -0.762032,1.1363634 -2.072193,1.7780744 1.524065,0.655081 2.406417,1.911765 0.895722,1.256685 0.895722,2.847594 0,2.526738 -1.71123,4.024064 Q 14.780749,22 12,22 9.1925133,22 7.4946524,20.502674 5.8101604,18.991979 5.8101604,16.47861 q 0,-1.57754 0.855615,-2.847594 Q 7.5347593,12.360963 9.0588235,11.705882 7.7620321,11.064171 7.013369,9.9278076 6.2647059,8.791444 6.2647059,7.3475937 q 0,-2.459893 1.5775401,-3.9037432 Q 9.4197861,2.0000002 12,2.0000002 q 2.566845,0 4.144385,1.4438503 1.590909,1.4438502 1.590909,3.9037432 z m -2.018717,9.0775403 q 0,-1.631016 -1.04278,-2.660428 -1.029412,-1.029412 -2.700535,-1.029412 -1.671123,0 -2.6871658,1.016043 -1.0026738,1.016043 -1.0026738,2.673797 0,1.657754 0.9759359,2.606952 Q 10.248663,19.981283 12,19.981283 q 1.737968,0 2.727273,-0.949197 0.989304,-0.962567 0.989304,-2.606952 z M 12,4.0320858 q -1.457219,0 -2.3663102,0.9090908 -0.8957219,0.895722 -0.8957219,2.4465241 0,1.4839572 0.8823529,2.406417 Q 10.516043,10.703209 12,10.703209 q 1.483957,0 2.36631,-0.9090913 0.895722,-0.9224598 0.895722,-2.406417 0,-1.4839572 -0.92246,-2.4197861 Q 13.417112,4.0320858 12,4.0320858 Z" />
    </g>
    <g id="card13">
      <path
         d="m 6.9317159,20.376188 -2.14007,0 0,-14.1865929 -4.29164584,1.5762881 0,-1.9329665 6.09804894,-2.2896448 0.3336669,0 0,16.8329161 z" />
      <path
         d="m 16.285893,10.964482 1.5993,0 q 1.507253,-0.02301 2.370185,-0.793896 0.862931,-0.7708859 0.862931,-2.0825417 0,-2.9454727 -2.933967,-2.9454727 -1.38069,0 -2.209104,0.7938969 -0.816909,0.7823912 -0.816909,2.0825413 l -2.128564,0 q 0,-1.9904953 1.449725,-3.3021511 1.46123,-1.3231616 3.704852,-1.3231616 2.370185,0 3.716358,1.2541271 1.346173,1.2541271 1.346173,3.4862431 0,1.0930465 -0.713356,2.1170587 -0.701851,1.024012 -1.921461,1.530265 1.38069,0.437219 2.128564,1.449725 0.75938,1.012506 0.75938,2.473737 0,2.255127 -1.472736,3.578289 -1.472737,1.323161 -3.831416,1.323161 -2.358679,0 -3.842922,-1.277138 -1.472736,-1.277139 -1.472736,-3.371186 l 2.14007,0 q 0,1.323162 0.862932,2.117059 0.862931,0.793897 2.312656,0.793897 1.541771,0 2.358679,-0.805403 0.816909,-0.805403 0.816909,-2.312656 0,-1.461231 -0.897449,-2.243622 -0.897449,-0.782391 -2.588794,-0.805403 l -1.5993,0 0,-1.737369 z" />
    </g>
    <g id="card21">
      <path
         d="m 13.131991,21.493288 -12.2718117,0 0,-1.71085 6.4832214,-7.203579 Q 8.7841166,10.94519 9.324385,9.9289705 9.877517,8.8998878 9.877517,7.8064873 q 0,-1.4664429 -0.8875839,-2.4054809 -0.8875839,-0.939038 -2.3668903,-0.939038 -1.7751678,0 -2.76566,1.0162192 -0.9776286,1.0033557 -0.9776286,2.8042505 l -2.37975387,0 q 0,-2.5855704 1.65939597,-4.1806487 1.6722595,-1.5950783 4.4636465,-1.5950783 2.6112975,0 4.1291942,1.3763982 1.517897,1.3635347 1.517897,3.6403803 0,2.7656594 -3.524608,6.5861294 l -5.0167785,5.441275 9.4032435,0 0,1.942394 z" />
      <path
         d="m 23.5,21.493288 -2.392618,0 0,-15.860738 -4.798098,1.7623042 0,-2.1610738 6.817673,-2.5598433 0.373043,0 0,18.8193509 z" />
    </g>
    <g id="card34">
      <path
         d="m 3.6489365,11.042553 1.4787233,0 q 1.393617,-0.02128 2.1914893,-0.734043 0.7978724,-0.7127654 0.7978724,-1.9255314 0,-2.7234041 -2.7127659,-2.7234041 -1.2765957,0 -2.0425531,0.7340425 -0.7553192,0.7234042 -0.7553192,1.9255319 l -1.96808502,0 q 0,-1.8404255 1.34042552,-3.0531914 1.3510638,-1.2234043 3.4255318,-1.2234043 2.1914893,0 3.4361701,1.1595745 1.2446803,1.1595744 1.2446803,3.2234041 0,1.0106383 -0.659574,1.9574472 -0.6489361,0.946808 -1.7765956,1.414893 1.2765957,0.404255 1.968085,1.340426 0.7021276,0.93617 0.7021276,2.287234 0,2.085106 -1.361702,3.30851 -1.3617021,1.223404 -3.5425531,1.223404 -2.180851,0 -3.5531914,-1.180851 -1.36170208,-1.180851 -1.36170208,-3.117021 l 1.97872338,0 q 0,1.223404 0.7978723,1.957447 0.7978723,0.734042 2.1382978,0.734042 1.4255318,0 2.180851,-0.74468 0.7553191,-0.744681 0.7553191,-2.138298 0,-1.351064 -0.8297872,-2.074468 -0.8297872,-0.723404 -2.393617,-0.744681 l -1.4787233,0 0,-1.606383 z" />
      <path
         d="m 21.351063,14.542553 2.148937,0 0,1.606383 -2.148937,0 0,3.595744 -1.978723,0 0,-3.595744 -7.053191,0 0,-1.159575 6.93617,-10.7340418 2.095744,0 0,10.2872338 z m -6.797872,0 4.819149,0 0,-7.5957445 -0.234042,0.4255319 -4.585107,7.1702126 z" />
    </g>
    <g id="card55">
      <path
         d="m 1.0786169,11.866474 0.8234156,-8.0783744 8.3009185,0 0,1.9027576 -6.5539423,0 -0.4895984,4.4175128 q 1.1906144,-0.7010156 2.7039186,-0.7010156 2.2143202,0 3.516207,1.4687956 1.3018871,1.457668 1.3018871,3.950169 0,2.503628 -1.3575233,3.950169 -1.3463957,1.435414 -3.7721334,1.435414 -2.1475568,0 -3.5050798,-1.190615 -1.35752289,-1.190614 -1.54668593,-3.293662 l 1.94726653,0 q 0.189163,1.390905 0.9903241,2.103048 0.8011611,0.701016 2.1141751,0.701016 1.4354136,0 2.2477019,-0.979197 0.8234156,-0.979197 0.8234156,-2.703919 0,-1.624576 -0.890179,-2.603773 -0.8790518,-0.990324 -2.3478471,-0.990324 -1.3463957,0 -2.1141751,0.589743 L 2.725448,12.289309 1.0786169,11.866474 Z" />
      <path
         d="m 13.897194,11.866474 0.823415,-8.0783744 8.300919,0 0,1.9027576 -6.553942,0 -0.489599,4.4175128 q 1.190614,-0.7010156 2.703919,-0.7010156 2.21432,0 3.516207,1.4687956 1.301886,1.457668 1.301886,3.950169 0,2.503628 -1.357522,3.950169 -1.346396,1.435414 -3.772134,1.435414 -2.147557,0 -3.50508,-1.190615 -1.357523,-1.190614 -1.546686,-3.293662 l 1.947267,0 q 0.189163,1.390905 0.990324,2.103048 0.801161,0.701016 2.114175,0.701016 1.435414,0 2.247702,-0.979197 0.823416,-0.979197 0.823416,-2.703919 0,-1.624576 -0.890179,-2.603773 -0.879052,-0.990324 -2.347847,-0.990324 -1.346396,0 -2.114176,0.589743 l -0.545234,0.44509 -1.646831,-0.422835 z" />
    </g>
    <g id="card89">
      <path
         d="m 10.478599,8.1070039 q 0,1.2193579 -0.6488325,2.1702331 -0.6376459,0.950876 -1.7339494,1.487841 1.2752918,0.548151 2.0136189,1.599708 0.749513,1.051556 0.749513,2.382782 0,2.114299 -1.4319062,3.367218 -1.4207198,1.252918 -3.747568,1.252918 -2.3492218,0 -3.7699416,-1.252918 -1.40953301,-1.264105 -1.40953301,-3.367218 0,-1.320039 0.71595331,-2.382782 0.72714,-1.062743 2.0024318,-1.610895 Q 2.1332686,11.216926 1.5068095,10.266051 0.88035038,9.3151751 0.88035038,8.1070039 q 0,-2.0583657 1.32003892,-3.2665369 1.3200388,-1.2081712 3.4790855,-1.2081712 2.1478599,0 3.4678987,1.2081712 1.3312255,1.2081712 1.3312255,3.2665369 z M 8.7893969,15.702821 q 0,-1.364786 -0.8725681,-2.226167 -0.8613813,-0.861382 -2.2597276,-0.861382 -1.3983462,0 -2.2485408,0.850195 -0.8390077,0.850194 -0.8390077,2.237354 0,1.387159 0.8166342,2.18142 0.827821,0.794261 2.2932879,0.794261 1.4542801,0 2.2821011,-0.794261 0.827821,-0.805447 0.827821,-2.18142 z M 5.6794748,5.3326849 q -1.219358,0 -1.9800583,0.7607004 -0.7495136,0.7495136 -0.7495136,2.0471789 0,1.2417315 0.7383268,2.0136188 0.7495136,0.7607 1.9912451,0.7607 1.2417315,0 1.9800583,-0.7607 0.7495136,-0.7718873 0.7495136,-2.0136188 0,-1.2417315 -0.7718871,-2.0248054 Q 6.8652724,5.3326849 5.6794748,5.3326849 Z" />
      <path
         d="m 21.419261,12.984436 q -0.648833,0.771887 -1.554962,1.241731 -0.894941,0.469845 -1.968871,0.469845 -1.409533,0 -2.46109,-0.69358 -1.040369,-0.69358 -1.610894,-1.946498 -0.570526,-1.264105 -0.570526,-2.785506 0,-1.6332685 0.615273,-2.9421206 0.626459,-1.3088521 1.767509,-2.0024318 1.141051,-0.6935798 2.662452,-0.6935798 2.416342,0 3.803501,1.8122568 Q 23.5,7.2456226 23.5,10.366731 l 0,0.604086 q 0,4.754377 -1.879378,6.946984 -1.879377,2.181421 -5.671692,2.237354 l -0.402724,0 0,-1.745136 0.436284,0 q 2.561771,-0.04475 3.937743,-1.331225 1.375973,-1.297666 1.499028,-4.094358 z m -3.18823,0 q 1.04037,0 1.912938,-0.637646 0.883755,-0.637646 1.286478,-1.577335 l 0,-0.8278208 q 0,-2.0359922 -0.883755,-3.311284 -0.883754,-1.2752918 -2.237354,-1.2752918 -1.364786,0 -2.192607,1.0515564 -0.827821,1.0403696 -0.827821,2.7519455 0,1.6668287 0.794261,2.7519457 0.805448,1.07393 2.14786,1.07393 z" />
    </g>
    <g id="cardunknown">
      <path
         d="m 10.338937,16.337592 q 0.0269,-1.600538 0.363148,-2.528581 0.336247,-0.928043 1.371889,-2.057834 l 1.761937,-1.8157367 q 1.129792,-1.2777404 1.129792,-2.7437793 0,-1.4122394 -0.739745,-2.2057835 -0.739744,-0.8069939 -2.151984,-0.8069939 -1.371889,0 -2.2057831,0.7262945 -0.8338937,0.7262946 -0.8338937,1.9502354 l -2.4882313,0 Q 6.5729657,4.6765299 8.0928043,3.3449899 9.6260927,2 12.073974,2 q 2.542031,0 3.954271,1.3718897 1.425689,1.3584398 1.425689,3.7390719 0,2.3537323 -2.178884,4.6402154 l -1.466039,1.452589 q -0.981842,1.089442 -0.981842,3.133826 l -2.488232,0 z m -0.107599,4.263618 q 0,-0.605245 0.363147,-1.008742 0.376598,-0.416947 1.102892,-0.416947 0.726295,0 1.102892,0.416947 0.376597,0.403497 0.376597,1.008742 0,0.605246 -0.376597,1.008743 Q 12.423672,22 11.697377,22 10.971083,22 10.594485,21.609953 10.231338,21.206456 10.231338,20.60121 Z" />
    </g>
  </defs>
</svg>
